<svg width="0" height="0" class="hidden">
  <symbol fill="none" xmlns="http://www.w3.org/2000/svg" viewBox="0 0 24 24" id="delete">
    <path d="M15 21.75H9C8.00544 21.75 7.05161 21.3549 6.34835 20.6517C5.64509 19.9484 5.25 18.9946 5.25 18V9C5.25 8.80109 5.32902 8.61032 5.46967 8.46967C5.61032 8.32902 5.80109 8.25 6 8.25C6.19891 8.25 6.38968 8.32902 6.53033 8.46967C6.67098 8.61032 6.75 8.80109 6.75 9V18C6.75 18.5967 6.98705 19.169 7.40901 19.591C7.83097 20.0129 8.40326 20.25 9 20.25H15C15.5967 20.25 16.169 20.0129 16.591 19.591C17.0129 19.169 17.25 18.5967 17.25 18V9C17.25 8.80109 17.329 8.61032 17.4697 8.46967C17.6103 8.32902 17.8011 8.25 18 8.25C18.1989 8.25 18.3897 8.32902 18.5303 8.46967C18.671 8.61032 18.75 8.80109 18.75 9V18C18.75 18.9946 18.3549 19.9484 17.6517 20.6517C16.9484 21.3549 15.9946 21.75 15 21.75Z" fill="currentColor"></path>
    <path d="M19.5 6.75H4.5C4.30109 6.75 4.11032 6.67098 3.96967 6.53033C3.82902 6.38968 3.75 6.19891 3.75 6C3.75 5.80109 3.82902 5.61032 3.96967 5.46967C4.11032 5.32902 4.30109 5.25 4.5 5.25H19.5C19.6989 5.25 19.8897 5.32902 20.0303 5.46967C20.171 5.61032 20.25 5.80109 20.25 6C20.25 6.19891 20.171 6.38968 20.0303 6.53033C19.8897 6.67098 19.6989 6.75 19.5 6.75Z" fill="currentColor"></path>
    <path d="M15 6.75H9C8.80109 6.75 8.61032 6.67098 8.46967 6.53033C8.32902 6.38968 8.25 6.19891 8.25 6V4.5C8.25 3.90326 8.48705 3.33097 8.90901 2.90901C9.33097 2.48705 9.90326 2.25 10.5 2.25H13.5C14.0967 2.25 14.669 2.48705 15.091 2.90901C15.5129 3.33097 15.75 3.90326 15.75 4.5V6C15.75 6.19891 15.671 6.38968 15.5303 6.53033C15.3897 6.67098 15.1989 6.75 15 6.75ZM9.75 5.25H14.25V4.5C14.25 4.30109 14.171 4.11032 14.0303 3.96967C13.8897 3.82902 13.6989 3.75 13.5 3.75H10.5C10.3011 3.75 10.1103 3.82902 9.96967 3.96967C9.82902 4.11032 9.75 4.30109 9.75 4.5V5.25Z" fill="currentColor"></path>
    <path d="M10.5 17.25C10.3011 17.25 10.1103 17.171 9.96967 17.0303C9.82902 16.8897 9.75 16.6989 9.75 16.5V11.25C9.75 11.0511 9.82902 10.8603 9.96967 10.7197C10.1103 10.579 10.3011 10.5 10.5 10.5C10.6989 10.5 10.8897 10.579 11.0303 10.7197C11.171 10.8603 11.25 11.0511 11.25 11.25V16.5C11.25 16.6989 11.171 16.8897 11.0303 17.0303C10.8897 17.171 10.6989 17.25 10.5 17.25Z" fill="currentColor"></path>
    <path d="M13.5 17.25C13.3011 17.25 13.1103 17.171 12.9697 17.0303C12.829 16.8897 12.75 16.6989 12.75 16.5V11.25C12.75 11.0511 12.829 10.8603 12.9697 10.7197C13.1103 10.579 13.3011 10.5 13.5 10.5C13.6989 10.5 13.8897 10.579 14.0303 10.7197C14.171 10.8603 14.25 11.0511 14.25 11.25V16.5C14.25 16.6989 14.171 16.8897 14.0303 17.0303C13.8897 17.171 13.6989 17.25 13.5 17.25Z" fill="currentColor"></path>
  </symbol>
  <symbol fill="none" xmlns="http://www.w3.org/2000/svg" viewBox="0 0 17 16" id="right">
    <g clip-path="url(#clip0_762_19423)">
      <path d="M11.2622 7.88358L6.86936 4.705C6.84802 4.6895 6.82279 4.68022 6.79649 4.67818C6.77019 4.67614 6.74383 4.68142 6.72035 4.69344C6.69686 4.70546 6.67717 4.72375 6.66344 4.74627C6.64971 4.7688 6.64249 4.79469 6.64258 4.82108V5.65858C6.64258 5.84072 6.73008 6.01393 6.87829 6.12108L9.47472 7.99965L6.87829 9.87822C6.73008 9.98536 6.64258 10.1568 6.64258 10.3407V11.1782C6.64258 11.2943 6.77472 11.3621 6.86936 11.2943L11.2622 8.11572C11.3408 8.05858 11.3408 7.94072 11.2622 7.88358Z" fill="currentColor"></path>
      <path d="M8.5 0C4.08214 0 0.5 3.58214 0.5 8C0.5 12.4179 4.08214 16 8.5 16C12.9179 16 16.5 12.4179 16.5 8C16.5 3.58214 12.9179 0 8.5 0ZM8.5 14.6429C4.83214 14.6429 1.85714 11.6679 1.85714 8C1.85714 4.33214 4.83214 1.35714 8.5 1.35714C12.1679 1.35714 15.1429 4.33214 15.1429 8C15.1429 11.6679 12.1679 14.6429 8.5 14.6429Z" fill="currentColor"></path>
    </g>
    <defs>
      <clipPath id="clip0_762_19423">
        <rect width="16" height="16" fill="white" transform="translate(0.5)"></rect>
      </clipPath>
    </defs>
  </symbol>
  <symbol fill="none" xmlns="http://www.w3.org/2000/svg" viewBox="0 0 24 24" id="refresh">
    <path d="M6 18.7V21C6 21.2652 5.89464 21.5196 5.70711 21.7071C5.51957 21.8946 5.26522 22 5 22C4.73478 22 4.48043 21.8946 4.29289 21.7071C4.10536 21.5196 4 21.2652 4 21V16C4 15.7348 4.10536 15.4804 4.29289 15.2929C4.48043 15.1054 4.73478 15 5 15H10C10.2652 15 10.5196 15.1054 10.7071 15.2929C10.8946 15.4804 11 15.7348 11 16C11 16.2652 10.8946 16.5196 10.7071 16.7071C10.5196 16.8946 10.2652 17 10 17H7.1C8.08451 17.965 9.33205 18.6178 10.6861 18.8766C12.0402 19.1353 13.4406 18.9885 14.7115 18.4545C15.9825 17.9205 17.0675 17.0231 17.8304 15.8748C18.5933 14.7266 19.0002 13.3786 19 12C19 11.7348 19.1054 11.4804 19.2929 11.2929C19.4804 11.1054 19.7348 11 20 11C20.2652 11 20.5196 11.1054 20.7071 11.2929C20.8946 11.4804 21 11.7348 21 12C20.9984 13.7367 20.4944 15.4358 19.5487 16.8925C18.6031 18.3491 17.2562 19.501 15.6705 20.2093C14.0848 20.9176 12.3281 21.152 10.6121 20.8841C8.89623 20.6163 7.29445 19.8578 6 18.7ZM18 5.3V3C18 2.73478 18.1054 2.48043 18.2929 2.29289C18.4804 2.10536 18.7348 2 19 2C19.2652 2 19.5196 2.10536 19.7071 2.29289C19.8946 2.48043 20 2.73478 20 3V8C20 8.26522 19.8946 8.51957 19.7071 8.70711C19.5196 8.89464 19.2652 9 19 9H14C13.7348 9 13.4804 8.89464 13.2929 8.70711C13.1054 8.51957 13 8.26522 13 8C13 7.73478 13.1054 7.48043 13.2929 7.29289C13.4804 7.10536 13.7348 7 14 7H16.9C15.9155 6.03499 14.6679 5.38216 13.3139 5.12341C11.9598 4.86465 10.5594 5.01149 9.28845 5.54551C8.01749 6.07953 6.93251 6.97695 6.16959 8.1252C5.40668 9.27345 4.9998 10.6214 5 12C5 12.2652 4.89464 12.5196 4.70711 12.7071C4.51957 12.8946 4.26522 13 4 13C3.73478 13 3.48043 12.8946 3.29289 12.7071C3.10536 12.5196 3 12.2652 3 12C3.00158 10.2633 3.5056 8.56418 4.45125 7.10754C5.39691 5.65089 6.74382 4.49896 8.32951 3.79069C9.9152 3.08241 11.6719 2.84804 13.3879 3.11585C15.1038 3.38366 16.7056 4.14221 18 5.3Z" fill="currentColor"></path>
  </symbol>
  <symbol fill="none" xmlns="http://www.w3.org/2000/svg" viewBox="0 0 24 24" id="upload">
    <path d="M21 15V19C21 19.5304 20.7893 20.0391 20.4142 20.4142C20.0391 20.7893 19.5304 21 19 21H5C4.46957 21 3.96086 20.7893 3.58579 20.4142C3.21071 20.0391 3 19.5304 3 19V15" stroke="currentColor" stroke-width="2" stroke-linecap="round" stroke-linejoin="round"></path>
    <path d="M17 8L12 3L7 8" stroke="currentColor" stroke-width="2" stroke-linecap="round" stroke-linejoin="round"></path>
    <path d="M12 3V15" stroke="currentColor" stroke-width="2" stroke-linecap="round" stroke-linejoin="round"></path>
  </symbol>
  <symbol fill="none" xmlns="http://www.w3.org/2000/svg" viewBox="0 0 32 32" id="cancel">
    <path d="M16 0.5C7.4375 0.5 0.5 7.4375 0.5 16C0.5 24.5625 7.4375 31.5 16 31.5C24.5625 31.5 31.5 24.5625 31.5 16C31.5 7.4375 24.5625 0.5 16 0.5ZM16 28.5C9.09375 28.5 3.5 22.9062 3.5 16C3.5 9.09375 9.09375 3.5 16 3.5C22.9062 3.5 28.5 9.09375 28.5 16C28.5 22.9062 22.9062 28.5 16 28.5ZM22.3625 12.1125L18.475 16L22.3625 19.8875C22.6562 20.1813 22.6562 20.6562 22.3625 20.95L20.95 22.3625C20.6562 22.6562 20.1813 22.6562 19.8875 22.3625L16 18.475L12.1125 22.3625C11.8188 22.6562 11.3438 22.6562 11.05 22.3625L9.6375 20.95C9.34375 20.6562 9.34375 20.1813 9.6375 19.8875L13.525 16L9.6375 12.1125C9.34375 11.8188 9.34375 11.3438 9.6375 11.05L11.05 9.6375C11.3438 9.34375 11.8188 9.34375 12.1125 9.6375L16 13.525L19.8875 9.6375C20.1813 9.34375 20.6562 9.34375 20.95 9.6375L22.3625 11.05C22.6562 11.3438 22.6562 11.8188 22.3625 12.1125Z" fill="currentColor"></path>
  </symbol>
</svg>