<svg width="101" height="43" viewBox="0 0 101 43" fill="none" xmlns="http://www.w3.org/2000/svg">
<g filter="url(#filter0_d_665_26017)">
<path d="M9 34.5C9.63229 33.4595 10.8652 31.6561 12.6356 32.0723C14.8486 32.5925 16.1132 34.5 17.3778 32.0723C21.1085 24.91 22.5758 32.4047 27.8105 27.9104C34.1453 22.4716 33.4556 23.3006 33.8172 25.1358C35.8342 35.3723 42.5102 20.6209 44.2499 24.2688C45.389 26.6572 47.5983 19.1271 48.861 20.974C49.8094 22.3613 50.5728 25.1358 52.4697 25.1358C54.3665 25.1358 57.4269 22.3613 59.4818 20.2803C61.5368 18.1994 62.7443 22.1879 63.2185 23.2283C63.6928 24.2688 67.1703 22.1879 69.0672 19.5867C70.5847 17.5058 72.1232 20.5694 72.7028 22.3613C75.1296 21.4739 82.8099 14.9363 83.7678 18.7197C85.2432 17.5058 91.2096 9.00867 92 4.5" stroke="#E2F5FF" stroke-width="9" stroke-linecap="round" stroke-linejoin="round"/>
<path d="M9 34.5C9.63229 33.4595 10.8652 31.6561 12.6356 32.0723C14.8486 32.5925 16.1132 34.5 17.3778 32.0723C21.1085 24.91 22.5758 32.4047 27.8105 27.9104C34.1453 22.4716 33.4556 23.3006 33.8172 25.1358C35.8342 35.3723 42.5102 20.6209 44.2499 24.2688C45.389 26.6572 47.5983 19.1271 48.861 20.974C49.8094 22.3613 50.5728 25.1358 52.4697 25.1358C54.3665 25.1358 57.4269 22.3613 59.4818 20.2803C61.5368 18.1994 62.7443 22.1879 63.2185 23.2283C63.6928 24.2688 67.1703 22.1879 69.0672 19.5867C70.5847 17.5058 72.1232 20.5694 72.7028 22.3613C75.1296 21.4739 82.8099 14.9363 83.7678 18.7197C85.2432 17.5058 91.2096 9.00867 92 4.5" stroke="#0077B6" stroke-width="2" stroke-linecap="round" stroke-linejoin="round"/>
<path d="M9.94871 12.7334L12.8291 9.96689V15.5H14.1709V9.96689L17.0513 12.7334L18 11.8222L13.5 7.5L9 11.8222L9.94871 12.7334Z" fill="#03045E"/>
<path d="M25.458 11.5625C25.2503 11.8096 25.0015 12.0083 24.7114 12.1587C24.425 12.3091 24.1099 12.3843 23.7661 12.3843C23.3149 12.3843 22.9211 12.2733 22.5845 12.0513C22.2515 11.8293 21.9937 11.5177 21.811 11.1167C21.6284 10.7121 21.5371 10.2663 21.5371 9.7793C21.5371 9.25651 21.6356 8.78564 21.8325 8.3667C22.033 7.94775 22.3159 7.62728 22.6812 7.40527C23.0464 7.18327 23.4725 7.07227 23.9595 7.07227C24.7329 7.07227 25.3416 7.3623 25.7856 7.94238C26.2332 8.51888 26.457 9.30664 26.457 10.3057V10.5957C26.457 12.1175 26.1562 13.2293 25.5547 13.9312C24.9531 14.6294 24.0454 14.9875 22.8315 15.0054H22.6382V14.1675H22.8477C23.6676 14.1532 24.2979 13.9401 24.7383 13.5283C25.1787 13.113 25.4186 12.4577 25.458 11.5625ZM23.9272 11.5625C24.2603 11.5625 24.5664 11.4604 24.8457 11.2563C25.1286 11.0522 25.3345 10.7998 25.4634 10.499V10.1016C25.4634 9.44987 25.3219 8.91992 25.0391 8.51172C24.7562 8.10352 24.3981 7.89941 23.9648 7.89941C23.528 7.89941 23.1771 8.06771 22.9121 8.4043C22.6471 8.7373 22.5146 9.17773 22.5146 9.72559C22.5146 10.2591 22.6418 10.6995 22.896 11.0469C23.1538 11.3906 23.4976 11.5625 23.9272 11.5625ZM32.3493 9.2207C32.3493 9.611 32.2455 9.95833 32.0378 10.2627C31.8337 10.5671 31.5562 10.8052 31.2053 10.9771C31.6135 11.1525 31.9358 11.4085 32.1721 11.7451C32.412 12.0817 32.532 12.4631 32.532 12.8892C32.532 13.5659 32.3028 14.1048 31.8445 14.5059C31.3897 14.9069 30.7899 15.1074 30.0451 15.1074C29.2932 15.1074 28.6898 14.9069 28.2351 14.5059C27.7839 14.1012 27.5583 13.5623 27.5583 12.8892C27.5583 12.4666 27.6729 12.0853 27.9021 11.7451C28.1348 11.4049 28.4553 11.1471 28.8635 10.9717C28.5162 10.7998 28.2422 10.5617 28.0417 10.2573C27.8412 9.95296 27.7409 9.60742 27.7409 9.2207C27.7409 8.56185 27.9522 8.03906 28.3747 7.65234C28.7973 7.26562 29.3541 7.07227 30.0451 7.07227C30.7326 7.07227 31.2876 7.26562 31.7102 7.65234C32.1363 8.03906 32.3493 8.56185 32.3493 9.2207ZM31.5383 12.8677C31.5383 12.4308 31.3987 12.0745 31.1194 11.7988C30.8436 11.5231 30.482 11.3853 30.0344 11.3853C29.5868 11.3853 29.2269 11.5213 28.9548 11.7935C28.6863 12.0656 28.552 12.4237 28.552 12.8677C28.552 13.3117 28.6827 13.6608 28.9441 13.915C29.209 14.1693 29.5761 14.2964 30.0451 14.2964C30.5106 14.2964 30.8759 14.1693 31.1408 13.915C31.4058 13.6572 31.5383 13.3081 31.5383 12.8677ZM30.0451 7.88867C29.6548 7.88867 29.3379 8.01042 29.0945 8.25391C28.8545 8.49382 28.7346 8.82145 28.7346 9.23682C28.7346 9.63428 28.8528 9.95654 29.0891 10.2036C29.329 10.4471 29.6477 10.5688 30.0451 10.5688C30.4426 10.5688 30.7595 10.4471 30.9958 10.2036C31.2357 9.95654 31.3557 9.63428 31.3557 9.23682C31.3557 8.83936 31.2321 8.5153 30.9851 8.26465C30.738 8.014 30.4247 7.88867 30.0451 7.88867ZM33.4775 8.68359C33.4775 8.21452 33.6261 7.8278 33.9233 7.52344C34.2241 7.21908 34.609 7.06689 35.0781 7.06689C35.5543 7.06689 35.9392 7.22087 36.2329 7.52881C36.5301 7.83317 36.6787 8.22884 36.6787 8.71582V9.09717C36.6787 9.56982 36.5283 9.95654 36.2275 10.2573C35.9303 10.5545 35.5507 10.7031 35.0888 10.7031C34.6233 10.7031 34.2384 10.5545 33.934 10.2573C33.6297 9.95654 33.4775 9.55729 33.4775 9.05957V8.68359ZM34.2187 9.09717C34.2187 9.37646 34.2975 9.60742 34.455 9.79004C34.6126 9.96908 34.8238 10.0586 35.0888 10.0586C35.343 10.0586 35.5471 9.97087 35.7011 9.79541C35.8587 9.61995 35.9374 9.38005 35.9374 9.07568V8.68359C35.9374 8.4043 35.8605 8.17334 35.7065 7.99072C35.5525 7.80811 35.343 7.7168 35.0781 7.7168C34.8131 7.7168 34.6036 7.80811 34.4496 7.99072C34.2957 8.17334 34.2187 8.41146 34.2187 8.70508V9.09717ZM37.2856 13.0825C37.2856 12.6134 37.4342 12.2285 37.7314 11.9277C38.0322 11.6234 38.4171 11.4712 38.8862 11.4712C39.3552 11.4712 39.7402 11.6216 40.041 11.9224C40.3417 12.2231 40.4921 12.6224 40.4921 13.1201V13.5015C40.4921 13.9705 40.3417 14.3573 40.041 14.6616C39.7438 14.9624 39.3624 15.1128 38.8969 15.1128C38.4314 15.1128 38.0465 14.9642 37.7421 14.667C37.4378 14.3662 37.2856 13.967 37.2856 13.4692V13.0825ZM38.0268 13.5015C38.0268 13.7843 38.1056 14.0171 38.2631 14.1997C38.4207 14.3787 38.6319 14.4683 38.8969 14.4683C39.1547 14.4683 39.3606 14.3805 39.5146 14.2051C39.6686 14.026 39.7455 13.7843 39.7455 13.48V13.0825C39.7455 12.7996 39.6668 12.5687 39.5092 12.3896C39.3552 12.2106 39.1476 12.1211 38.8862 12.1211C38.6319 12.1211 38.4243 12.2106 38.2631 12.3896C38.1056 12.5651 38.0268 12.8032 38.0268 13.104V13.5015ZM35.3144 14.4092L34.7504 14.0547L38.5693 7.94238L39.1332 8.29688L35.3144 14.4092Z" fill="#023E8A"/>
</g>
<defs>
<filter id="filter0_d_665_26017" x="0.5" y="-0.000732422" width="100" height="47.0013" filterUnits="userSpaceOnUse" color-interpolation-filters="sRGB">
<feFlood flood-opacity="0" result="BackgroundImageFix"/>
<feColorMatrix in="SourceAlpha" type="matrix" values="0 0 0 0 0 0 0 0 0 0 0 0 0 0 0 0 0 0 127 0" result="hardAlpha"/>
<feOffset dy="4"/>
<feGaussianBlur stdDeviation="2"/>
<feComposite in2="hardAlpha" operator="out"/>
<feColorMatrix type="matrix" values="0 0 0 0 0 0 0 0 0 0 0 0 0 0 0 0 0 0 0.25 0"/>
<feBlend mode="normal" in2="BackgroundImageFix" result="effect1_dropShadow_665_26017"/>
<feBlend mode="normal" in="SourceGraphic" in2="effect1_dropShadow_665_26017" result="shape"/>
</filter>
</defs>
</svg>
