<svg width="300" height="300" viewBox="0 0 300 300" fill="none" xmlns="http://www.w3.org/2000/svg">
<path d="M208.318 155.859C207.491 157.431 206.174 158.612 204.266 159.311C193.709 163.172 187.114 148.637 181.663 135.8C179.219 130.049 176.43 124.426 173.786 118.811C170.534 111.889 167.481 104.966 165.546 97.7617C162.021 84.7068 174.849 79.365 179.737 82.9989C179.737 82.9989 191.774 97.7617 199.496 117.412C205.819 133.492 212.061 148.746 208.318 155.859Z" fill="#9AB3DA"/>
<path d="M208.264 155.852C207.437 157.424 206.12 158.605 204.212 159.304C193.655 163.165 187.059 148.63 181.607 135.794C179.163 130.044 176.374 124.42 173.73 118.806C176.583 118.77 178.473 118.879 178.473 118.879C184.237 135.63 190.997 151.941 208.264 155.852Z" fill="#404B7C"/>
<path d="M132.892 88.0572C128.967 82.9057 122.052 81.1067 117.491 85.0499C110.987 90.6804 99.9976 114.213 99.1456 116.05C99.1456 116.05 92.7419 130.279 95.7044 139.473C97.1789 144.049 102.99 145.412 106.428 142.051C108.106 140.411 110.065 138.31 112.175 135.893C119.008 128.061 127.422 116.886 132.938 107.237C137.417 99.3962 136.263 92.4911 132.892 88.0572Z" fill="#9AB3DA"/>
<path d="M132.963 107.266C127.449 116.915 119.038 128.09 112.207 135.922C114.832 123.765 118.021 110.818 118.084 110.518C122.263 91.6382 127.449 86.7955 132.918 88.0857C136.288 92.5195 137.441 99.4247 132.963 107.266Z" fill="#404B7C"/>
<path d="M183.932 146.576C183.478 142.033 179.843 82.9787 179.843 82.9787C179.843 82.9787 157.357 71.622 144.183 73.4391C131.01 75.2562 117.609 85.0229 117.609 85.0229C113.066 110.008 121.924 134.538 120.334 147.257C118.745 159.977 106.934 188.596 106.934 188.596C118.646 197.333 130.677 201.059 141.984 201.868C144.579 197.494 153.799 182.463 153.799 182.463L168.011 199.044C185.245 194.253 197.106 185.416 197.106 185.416C197.106 185.416 184.386 151.119 183.932 146.576Z" fill="#9AB3DA"/>
<path d="M117.301 86.9385C115.143 100.799 116.938 114.431 118.594 125.888" stroke="#404B7C" stroke-miterlimit="10" stroke-linecap="round" stroke-linejoin="round"/>
<path d="M183.548 140.929C182.695 128.42 180.891 99.3852 180.176 87.8175" stroke="#404B7C" stroke-miterlimit="10" stroke-linecap="round" stroke-linejoin="round"/>
<path d="M122.737 166.553L120.996 172.685L138.334 177.228L140.151 171.02L122.737 166.553Z" fill="#404B7C"/>
<path d="M179.709 164.868L181.818 170.884L164.788 176.469L162.598 170.382L179.709 164.868Z" fill="#404B7C"/>
<path d="M152.785 181.451L148.242 176.738C148.242 176.738 151.422 159.078 151.649 130.005" stroke="#404B7C" stroke-miterlimit="10" stroke-linecap="round" stroke-linejoin="round"/>
<path d="M145.345 70.612C145.345 70.612 139.554 71.7477 129.56 77.1991C129.56 77.1991 124.601 83.5969 121.875 93.1369L133.232 95.4083L128.083 105.403L151.705 128.874L169.27 103.737L162.91 92.0769L173.964 89.9569C173.964 89.9569 168.664 78.7134 165.787 75.8362C162.91 72.9591 149.888 70.0062 145.345 70.612Z" fill="#404B7C"/>
<path d="M145.299 73.6558C141.981 74.3193 135.235 77.3132 131.836 78.8806C133.663 85.6229 141.691 111.697 151.583 124.212C151.583 124.212 159.335 92.5086 162.661 76.6279C158.289 75.4143 148.754 72.9649 145.299 73.6558Z" fill="white"/>
<path d="M155.294 108.408C154.59 103.694 152.56 91.204 149.662 82.7505L146.274 82.0312L143.908 83.5076C143.908 83.5076 142.137 94.7746 142.412 108.51C145.125 114.445 148.198 120.09 151.479 124.24C151.479 124.24 153.161 117.359 155.294 108.408Z" fill="#404B7C"/>
<path d="M141.504 106.201C144.462 112.973 147.912 119.573 151.624 124.266C151.624 124.266 153.477 116.69 155.761 107.091" stroke="#9AB3DA" stroke-miterlimit="10" stroke-linecap="round" stroke-linejoin="round"/>
<path d="M144.727 89.3938C144.727 89.3938 148.19 89.0425 150.235 89.1596" stroke="#9AB3DA" stroke-miterlimit="10" stroke-linecap="round" stroke-linejoin="round"/>
<path d="M147.117 83.3042C147.117 83.3042 142.649 85.4241 138.03 89.9667C138.03 89.9667 136.97 73.7646 145.527 72.1746C154.084 70.5847 156.431 87.6954 156.431 87.6954C156.431 87.6954 154.235 85.4241 147.117 83.3042Z" fill="white"/>
<path d="M151.569 74.707C155.263 79.1646 156.431 87.6827 156.431 87.6827C156.431 87.6827 154.235 85.4114 147.117 83.2915C147.117 83.2915 142.649 85.4114 138.03 89.9541C138.03 89.9541 137.484 81.6152 140.336 76.3152" stroke="#9AB3DA" stroke-miterlimit="10" stroke-linecap="round" stroke-linejoin="round"/>
<path d="M149.72 78.8556C149.655 79.8456 147.43 82.8108 144.205 80.6657L142.41 75.4553L140.625 70.3L146.945 64.6496L147 64.5996L147.055 64.8946L147.53 67.3898L149.17 75.9804L149.72 78.8556Z" fill="#ECBDBB"/>
<path d="M149.17 75.9796C148.6 77.8746 147.275 80.1796 144.205 80.6646L142.41 75.4546L140.625 70.2996L146.945 64.6496L147 64.5996L147.055 64.8946L147.53 67.3896L149.17 75.9796Z" fill="#404B7C"/>
<path d="M133.15 65.6935C133.15 65.6935 130.653 63.4785 128.837 65.3527C127.021 67.2269 130.199 72.5088 135.08 71.9408L133.15 65.6935Z" fill="#ECBDBB"/>
<path d="M130.078 66.7971C130.078 66.7971 131.782 67.0621 133.561 69.4092" stroke="#404B7C" stroke-miterlimit="10" stroke-linecap="round" stroke-linejoin="round"/>
<path d="M128.32 60.5713C129.981 64.7148 133.607 69.2891 133.607 69.2891L133.328 62.3023L128.32 60.5713Z" fill="#404B7C"/>
<path d="M138.462 52.846C131.315 53.6607 131.572 64.2032 133.843 71.5475C136.115 78.8918 143.309 82.5261 148.534 75.5603C153.759 68.5946 153.077 51.1803 138.462 52.846Z" fill="#ECBDBB"/>
<path d="M148.563 75.5701C150.062 73.2728 151.003 70.7358 151.213 67.8854L150.213 67.6749L149.977 62.9499C149.977 62.9499 144.87 63.532 145.842 56.6635C145.842 56.6635 140.942 61.3329 133.9 61.8962C126.858 62.4686 118.277 56.7285 119.131 54.1664C119.94 51.7133 123.584 53.7121 123.874 53.8756C123.457 53.4396 117.413 46.2123 119.314 41.7817C122.17 35.1257 136.633 43.5988 144.647 48.5957C145.874 49.3588 147.064 50.0584 148.2 50.7126C147.327 49.1953 145.983 46.7514 144.81 44.1712C142.884 39.9101 149.808 40.2463 151.116 52.2934C151.116 52.2934 154.924 45.1887 157.986 46.4425C160.566 47.4873 156.968 51.7029 153.334 53.629C156.995 55.7822 158.489 57.0451 159.098 59.8252C160.115 64.4769 148.563 75.5701 148.563 75.5701Z" fill="#404B7C"/>
<path d="M150.016 65.7958C150.016 65.7958 150.789 62.6064 154.336 62.9396C157.883 63.2727 156.881 71.1891 149.707 70.6333L150.016 65.7958Z" fill="#ECBDBB"/>
<path d="M150.879 68.4255C150.879 68.4255 151.611 65.3105 154.513 64.7461" stroke="#404B7C" stroke-miterlimit="10" stroke-linecap="round" stroke-linejoin="round"/>
<path d="M153.587 67.8582C153.587 67.8582 153.42 66.6853 152.344 65.8448" stroke="#404B7C" stroke-miterlimit="10" stroke-linecap="round" stroke-linejoin="round"/>
<path d="M147.781 63.655C147.781 63.655 146.163 60.9557 144.116 62.2009C144.116 62.2009 144.007 61.5668 143.448 61.5978C142.888 61.6287 142.973 63.3796 142.973 63.3796C142.973 63.3796 145.518 62.9616 147.781 63.655Z" fill="#404B7C"/>
<path d="M135.059 64.3612C135.059 64.3612 135.79 61.5766 137.259 62.6831C137.259 62.6831 137.405 62.1711 137.769 62.1829C138.399 62.2033 138.201 63.8468 138.201 63.8468C138.201 63.8468 136.441 63.5282 135.059 64.3612Z" fill="#404B7C"/>
<path d="M138.023 70.008C138.671 69.9351 139.124 69.2261 139.034 68.4243C138.944 67.6224 138.345 67.0315 137.697 67.1044C137.049 67.1773 136.596 67.8863 136.686 68.6881C136.777 69.4899 137.375 70.0809 138.023 70.008Z" fill="#404B7C"/>
<path d="M137.716 68.3773C137.89 68.3773 138.031 68.2366 138.031 68.0631C138.031 67.8897 137.89 67.749 137.716 67.749C137.543 67.749 137.402 67.8897 137.402 68.0631C137.402 68.2366 137.543 68.3773 137.716 68.3773Z" fill="white"/>
<path d="M140.751 71.2646C140.751 71.2646 139.408 71.9344 139.827 72.9082C140.313 74.0366 141.941 73.4216 141.941 73.4216" stroke="#404B7C" stroke-miterlimit="10" stroke-linecap="round" stroke-linejoin="round"/>
<path d="M145.071 71.0753C146.88 71.0753 148.346 69.6092 148.346 67.8008C148.346 65.9923 146.88 64.5262 145.071 64.5262C143.263 64.5262 141.797 65.9923 141.797 67.8008C141.797 69.6092 143.263 71.0753 145.071 71.0753Z" stroke="#404B7C" stroke-miterlimit="10" stroke-linecap="round" stroke-linejoin="round"/>
<path d="M136.868 71.7347C138.677 71.7347 140.143 70.2686 140.143 68.4602C140.143 66.6517 138.677 65.1857 136.868 65.1857C135.06 65.1857 133.594 66.6517 133.594 68.4602C133.594 70.2686 135.06 71.7347 136.868 71.7347Z" stroke="#404B7C" stroke-miterlimit="10" stroke-linecap="round" stroke-linejoin="round"/>
<path d="M140.625 76.0347C140.625 76.0347 143.345 76.7377 145.65 73.9015C145.65 73.9015 145.528 78.7282 140.625 76.0347Z" fill="white"/>
<path d="M143.555 68.1999C143.555 68.1999 143.766 67.4417 144.624 67.3862C145.482 67.3307 145.749 67.952 145.749 67.952" stroke="#404B7C" stroke-miterlimit="10" stroke-linecap="round" stroke-linejoin="round"/>
<path d="M94.3359 137.917C94.3359 137.917 96.7722 143.621 100.1 144.571C103.427 145.522 105.685 143.502 105.685 143.502C105.685 143.502 110.439 144.596 112.519 140.514C114.599 136.432 114.658 131.798 116.203 129.065C117.748 126.332 114.361 124.669 111.746 127.58C109.132 130.491 106.636 131.679 106.636 131.679L94.3359 137.917Z" fill="#ECBDBB"/>
<path d="M94.3074 137.724C94.2709 137.643 94.2377 137.561 94.2079 137.477C93.6987 136.044 94.4109 134.458 95.7649 133.764L115.395 123.486L117.721 127.639L98.7203 138.981C97.1642 139.929 95.0614 139.382 94.3074 137.724Z" fill="#404B7C"/>
<path d="M131.001 135.737C141.057 135.737 149.209 127.584 149.209 117.527C149.209 107.469 141.057 99.3164 131.001 99.3164C120.945 99.3164 112.793 107.469 112.793 117.527C112.793 127.584 120.945 135.737 131.001 135.737Z" fill="#404B7C"/>
<path d="M130.851 130.883C138.236 130.883 144.222 124.899 144.222 117.517C144.222 110.135 138.236 104.151 130.851 104.151C123.467 104.151 117.48 110.135 117.48 117.517C117.48 124.899 123.467 130.883 130.851 130.883Z" fill="#6B81BE"/>
<path d="M138.3 116.53C138.368 117.026 138.384 117.526 138.35 118.021C138.274 119.123 139.106 120.078 140.207 120.154C141.309 120.23 142.263 119.398 142.339 118.296C142.392 117.531 142.367 116.757 142.261 115.986C142.111 114.892 141.103 114.127 140.009 114.277C138.915 114.427 138.15 115.435 138.3 116.53V116.53Z" fill="#9AB3DA"/>
<path d="M127.489 111.138C129.084 110.246 130.848 110.015 132.508 110.347C134.166 110.68 135.697 111.58 136.792 112.955C137.481 113.819 138.739 113.961 139.603 113.272C140.467 112.584 140.609 111.325 139.92 110.461C138.219 108.327 135.849 106.937 133.296 106.424C130.743 105.909 127.984 106.275 125.535 107.647C124.571 108.187 124.227 109.406 124.767 110.37C125.307 111.334 126.525 111.678 127.489 111.138L127.489 111.138Z" fill="#9AB3DA"/>
<path d="M92.7929 130.682C92.7929 130.682 89.9414 130.623 89.9414 135.732C89.9414 140.842 92.9117 143.397 95.2285 141.08C95.2285 141.08 96.2384 142.504 98.3176 141.94C100.397 141.377 100.397 139.475 100.397 139.475C100.397 139.475 101.407 141.377 103.783 140.723C106.159 140.07 105.981 137.753 105.981 137.753C105.981 137.753 107.229 140.426 110.021 139.357C112.813 138.287 110.496 133.712 110.021 131.039C109.545 128.365 110.971 125.692 108.892 123.672C106.813 121.652 104.139 123.672 103.664 125.395C103.664 125.395 100.337 123.553 97.9612 127.89C97.9612 127.89 94.3969 126.761 92.7929 130.682Z" fill="#ECBDBB"/>
<path d="M96.6797 141.969C97.1062 142.059 97.6225 142.064 98.2301 141.899C100.309 141.335 100.309 139.433 100.309 139.433C100.309 139.433 101.319 141.335 103.695 140.682C106.071 140.028 105.893 137.71 105.893 137.71C105.893 137.71 107.141 140.384 109.933 139.315C112.725 138.245 110.408 133.669 109.933 130.995C109.799 130.245 109.816 129.495 109.862 128.76" stroke="#404B7C" stroke-miterlimit="10" stroke-linecap="round" stroke-linejoin="round"/>
<path d="M93.2082 132.129C93.2082 132.129 92.8121 136.043 94.3932 139.436" stroke="#404B7C" stroke-miterlimit="10" stroke-linecap="round" stroke-linejoin="round"/>
<path d="M98.1445 130.518C98.1445 130.518 98.1445 134.201 99.5703 137.527" stroke="#404B7C" stroke-miterlimit="10" stroke-linecap="round" stroke-linejoin="round"/>
<path d="M104.004 128.467C104.004 128.467 104.063 132.625 105.069 135.18" stroke="#404B7C" stroke-miterlimit="10" stroke-linecap="round" stroke-linejoin="round"/>
<path d="M93.6588 254.312C93.6588 254.312 39.4991 259.097 14.0625 207.677C14.0625 207.677 69.0006 198.599 93.6588 254.312Z" fill="#404B7C"/>
<path d="M44.8098 221.572C38.1904 225.888 31.475 226.449 25.7812 225.58C28.9057 229.265 32.198 232.489 35.584 235.299C39.7355 234.782 44.1466 233.209 48.553 229.943C56.0191 224.409 62.8467 222.219 68.2904 221.546C66.0396 219.888 63.7612 218.413 61.4762 217.106C56.1234 216.939 50.2842 218.002 44.8098 221.572Z" fill="#6B81BE"/>
<path d="M63.1816 234.384C57.3531 240.005 50.6836 241.772 44.8242 241.916C49.5601 244.804 54.3312 247.039 58.9409 248.761C62.183 247.365 65.4154 245.182 68.4338 241.9C72.426 237.558 76.4177 234.595 80.1379 232.572C78.5919 230.781 77.0063 229.116 75.3914 227.563C71.1571 228.697 66.9086 230.79 63.1816 234.384Z" fill="#6B81BE"/>
<path d="M19.6289 211.011L90.4159 251.789" stroke="#ECBDBB" stroke-miterlimit="10" stroke-linecap="round" stroke-linejoin="round"/>
<path d="M104.535 238.136C104.535 238.136 99.3218 183.703 52.6893 174.463C52.6893 174.463 45.8098 218.512 104.535 238.136Z" fill="#9AB3DA"/>
<path d="M60.0586 183.032C60.4496 183.241 100.305 233.846 100.305 233.846" stroke="#6B81BE" stroke-miterlimit="10" stroke-linecap="round" stroke-linejoin="round"/>
<path d="M214.453 255.33C214.453 255.33 268.694 251.681 285.87 196.948C285.87 196.948 230.196 196.475 214.453 255.33Z" fill="#404B7C"/>
<path d="M257.571 215.458C264.776 218.697 271.496 218.213 276.985 216.474C274.469 220.595 271.715 224.288 268.805 227.585C264.625 227.716 260.025 226.845 255.168 224.302C246.938 219.992 239.856 218.885 234.375 219.062C236.342 217.077 238.364 215.269 240.419 213.625C245.68 212.633 251.612 212.78 257.571 215.458Z" fill="#6B81BE"/>
<path d="M241.447 230.949C248.074 235.6 254.937 236.315 260.748 235.551C256.516 239.137 252.148 242.083 247.86 244.496C244.441 243.619 240.91 241.962 237.42 239.186C232.804 235.515 228.402 233.205 224.414 231.781C225.664 229.772 226.973 227.882 228.329 226.099C232.688 226.564 237.209 227.974 241.447 230.949Z" fill="#6B81BE"/>
<path d="M281.011 201.05L217.383 252.286" stroke="#ECBDBB" stroke-miterlimit="10" stroke-linecap="round" stroke-linejoin="round"/>
<path d="M222.363 217.351C222.363 217.351 223.443 191.862 244.937 186.401C244.937 186.401 249.233 206.753 222.363 217.351Z" fill="#9AB3DA"/>
<path d="M60.0479 88.455C62.6308 88.455 64.7247 86.3611 64.7247 83.7782C64.7247 81.1953 62.6308 79.1014 60.0479 79.1014C57.465 79.1014 55.3711 81.1953 55.3711 83.7782C55.3711 86.3611 57.465 88.455 60.0479 88.455Z" fill="#E9F3FF"/>
<path d="M31.3411 70.3726C32.4701 70.3726 33.3853 69.4574 33.3853 68.3284C33.3853 67.1994 32.4701 66.2842 31.3411 66.2842C30.2121 66.2842 29.2969 67.1994 29.2969 68.3284C29.2969 69.4574 30.2121 70.3726 31.3411 70.3726Z" fill="#E9F3FF"/>
<path d="M252.092 139.877C253.787 139.877 255.161 138.504 255.161 136.809C255.161 135.114 253.787 133.74 252.092 133.74C250.397 133.74 249.023 135.114 249.023 136.809C249.023 138.504 250.397 139.877 252.092 139.877Z" fill="#E9F3FF"/>
<path d="M203.63 71.8858C206.389 71.8858 208.627 69.6481 208.627 66.8877C208.627 64.1274 206.389 61.8896 203.63 61.8896C200.87 61.8896 198.633 64.1274 198.633 66.8877C198.633 69.6481 200.87 71.8858 203.63 71.8858Z" fill="#E9F3FF"/>
<path d="M232.54 84.2933C233.468 84.2933 234.22 83.541 234.22 82.613C234.22 81.685 233.468 80.9327 232.54 80.9327C231.612 80.9327 230.859 81.685 230.859 82.613C230.859 83.541 231.612 84.2933 232.54 84.2933Z" fill="#E9F3FF"/>
<path d="M193.014 33.3668C193.794 33.3668 194.427 32.7344 194.427 31.9544C194.427 31.1743 193.794 30.5419 193.014 30.5419C192.234 30.5419 191.602 31.1743 191.602 31.9544C191.602 32.7344 192.234 33.3668 193.014 33.3668Z" fill="#E9F3FF"/>
<path d="M70.4787 149.893C72.674 149.893 74.4536 148.113 74.4536 145.918C74.4536 143.723 72.674 141.943 70.4787 141.943C68.2835 141.943 66.5039 143.723 66.5039 145.918C66.5039 148.113 68.2835 149.893 70.4787 149.893Z" fill="#E9F3FF"/>
<path d="M92.8452 55.4635C93.8017 55.4635 94.5771 54.6886 94.5771 53.7327C94.5771 52.7768 93.8017 52.002 92.8452 52.002C91.8887 52.002 91.1133 52.7768 91.1133 53.7327C91.1133 54.6886 91.8887 55.4635 92.8452 55.4635Z" fill="#E9F3FF"/>
<path d="M67.6758 27.1729V30.196" stroke="#404B7C" stroke-miterlimit="10" stroke-linecap="round" stroke-linejoin="round"/>
<path d="M73.0438 32.2266H70.0195" stroke="#404B7C" stroke-miterlimit="10" stroke-linecap="round" stroke-linejoin="round"/>
<path d="M67.6758 37.2285V34.2042" stroke="#404B7C" stroke-miterlimit="10" stroke-linecap="round" stroke-linejoin="round"/>
<path d="M62.6953 32.2266H65.7196" stroke="#404B7C" stroke-miterlimit="10" stroke-linecap="round" stroke-linejoin="round"/>
<path d="M41.8945 132.642V134.205" stroke="#404B7C" stroke-miterlimit="10" stroke-linecap="round" stroke-linejoin="round"/>
<path d="M44.3367 135.278H42.7734" stroke="#404B7C" stroke-miterlimit="10" stroke-linecap="round" stroke-linejoin="round"/>
<path d="M41.8945 137.867V136.304" stroke="#404B7C" stroke-miterlimit="10" stroke-linecap="round" stroke-linejoin="round"/>
<path d="M39.2578 135.278H40.8211" stroke="#404B7C" stroke-miterlimit="10" stroke-linecap="round" stroke-linejoin="round"/>
<path d="M228.223 126.123V129.147" stroke="#404B7C" stroke-miterlimit="10" stroke-linecap="round" stroke-linejoin="round"/>
<path d="M233.591 131.177H230.566" stroke="#404B7C" stroke-miterlimit="10" stroke-linecap="round" stroke-linejoin="round"/>
<path d="M228.223 136.252V133.228" stroke="#404B7C" stroke-miterlimit="10" stroke-linecap="round" stroke-linejoin="round"/>
<path d="M223.242 131.177H226.276" stroke="#404B7C" stroke-miterlimit="10" stroke-linecap="round" stroke-linejoin="round"/>
<path d="M256.934 55.4443V58.4686" stroke="#404B7C" stroke-miterlimit="10" stroke-linecap="round" stroke-linejoin="round"/>
<path d="M262.009 60.498H258.984" stroke="#404B7C" stroke-miterlimit="10" stroke-linecap="round" stroke-linejoin="round"/>
<path d="M256.934 65.5023V62.4757" stroke="#404B7C" stroke-miterlimit="10" stroke-linecap="round" stroke-linejoin="round"/>
<path d="M251.953 60.498H254.977" stroke="#404B7C" stroke-miterlimit="10" stroke-linecap="round" stroke-linejoin="round"/>
<path d="M210.006 145.898L189.336 221.378H112.081L91.4062 145.898H210.006Z" fill="#404B7C"/>
<path d="M189.462 221.411L183.762 254.441H117.907L112.207 221.411H189.462Z" fill="#404B7C"/>
<path d="M202.696 141.222C202.696 141.222 205.277 140.008 207.355 144.674C209.433 149.34 207.758 152.881 204.7 151.708C204.7 151.708 204.356 153.419 202.228 153.75C200.099 154.081 199.326 152.344 199.326 152.344C199.326 152.344 199.177 154.491 196.74 154.861C194.304 155.23 193.524 153.042 193.524 153.042C193.524 153.042 193.035 155.993 190.084 155.514C186.717 154.967 187.757 151.188 187.104 148.553C186.451 145.919 184.061 144.057 185.139 141.366C186.216 138.676 189.48 139.434 190.615 140.814C190.615 140.814 192.905 137.779 196.839 140.774C196.839 140.774 199.636 138.293 202.696 141.222Z" fill="#ECBDBB"/>
<path d="M202.441 142.749C202.441 142.749 204.397 146.163 204.329 149.908L202.441 142.749Z" fill="white"/>
<path d="M202.441 142.749C202.441 142.749 204.397 146.163 204.329 149.908" stroke="#272525" stroke-miterlimit="10"/>
<path d="M197.461 143.335C197.461 143.335 198.959 146.7 199.01 150.319L197.461 143.335Z" fill="white"/>
<path d="M197.461 143.335C197.461 143.335 198.959 146.7 199.01 150.319" stroke="#272525" stroke-miterlimit="10"/>
<path d="M191.895 143.701C191.895 143.701 193.532 147.524 193.648 150.269L191.895 143.701Z" fill="white"/>
<path d="M191.895 143.701C191.895 143.701 193.532 147.524 193.648 150.269" stroke="#272525" stroke-miterlimit="10"/>
<path d="M147.976 164.989L117.475 190.517C115.864 191.864 113.466 191.651 112.119 190.041L98.1519 173.348C96.8044 171.737 97.0174 169.339 98.6278 167.991L129.129 142.464C130.74 141.116 133.138 141.329 134.485 142.94L148.452 159.633C149.8 161.243 149.587 163.641 147.976 164.989Z" fill="#6B81BE"/>
<path d="M131.639 144.58L126.839 165.335C126.286 167.727 124.213 169.462 121.761 169.585L100.488 170.651" stroke="#404B7C" stroke-miterlimit="10" stroke-linecap="round" stroke-linejoin="round"/>
<path d="M119.393 169.702L115.137 188.085" stroke="#404B7C" stroke-miterlimit="10" stroke-linecap="round" stroke-linejoin="round"/>
<path d="M146.395 162.012L127.734 162.938" stroke="#404B7C" stroke-miterlimit="10" stroke-linecap="round" stroke-linejoin="round"/>
<path d="M200.223 174.791L192.208 193.663C191.251 195.917 188.65 196.972 186.396 196.015L150.945 180.962C148.692 180.005 147.639 177.399 148.596 175.145L159.37 149.774C160.327 147.52 162.934 146.467 165.188 147.424L182.526 154.786C184.78 155.743 185.833 158.35 184.876 160.604L183.848 163.024L197.876 168.98C200.13 169.937 201.178 172.542 200.223 174.791Z" fill="#E9F3FF"/>
<path d="M195.628 200.394L108.128 209.568C106.04 209.787 104.17 208.271 103.951 206.183L101.681 184.539C101.462 182.451 102.978 180.581 105.066 180.362L192.566 171.188C194.654 170.969 196.524 172.484 196.743 174.573L199.013 196.216C199.232 198.305 197.716 200.175 195.628 200.394Z" fill="#9AB3DA"/>
<path d="M163.184 195.693L114.949 200.75C112.86 200.969 110.99 199.454 110.771 197.365L110.177 191.702C109.958 189.614 111.474 187.744 113.562 187.525L161.797 182.468C163.885 182.249 165.756 183.764 165.975 185.852L166.569 191.515C166.787 193.604 165.272 195.474 163.184 195.693Z" fill="white"/>
<path d="M186.889 193.195L176.473 194.287C174.384 194.506 172.514 192.991 172.295 190.904L171.701 185.244C171.482 183.157 172.997 181.287 175.086 181.069L185.502 179.977C187.591 179.758 189.461 181.273 189.68 183.36L190.274 189.02C190.493 191.107 188.977 192.977 186.889 193.195Z" fill="white"/>
<path d="M149.737 231.285L131.593 237.873C129.62 238.589 127.439 237.57 126.723 235.597L115.952 205.927C115.235 203.954 116.254 201.773 118.228 201.056L136.371 194.468C138.345 193.751 140.525 194.77 141.242 196.744L152.013 226.413C152.729 228.387 151.71 230.568 149.737 231.285Z" fill="#6B81BE"/>
<path d="M119.903 207.131L119.66 206.464C119.257 205.355 119.83 204.129 120.941 203.726L135.642 198.394C136.748 197.993 137.981 198.569 138.383 199.674L138.625 200.34C139.028 201.45 138.455 202.675 137.344 203.078L122.643 208.41C121.533 208.813 120.306 208.24 119.903 207.131Z" fill="#404B7C"/>
<path d="M128.79 231.606L122.59 214.529C122.187 213.419 122.76 212.192 123.87 211.789L138.571 206.451C139.677 206.05 140.911 206.626 141.312 207.732L147.512 224.809C147.916 225.919 147.342 227.146 146.232 227.55L131.531 232.887C130.421 233.29 129.194 232.717 128.79 231.606Z" fill="#9AB3DA"/>
<path d="M168.472 238.048L151.01 229.816C149.111 228.921 148.297 226.655 149.192 224.755L162.649 196.201C163.545 194.301 165.81 193.487 167.71 194.382L185.172 202.614C187.071 203.509 187.885 205.775 186.99 207.674L173.532 236.229C172.637 238.129 170.372 238.943 168.472 238.048Z" fill="#6B81BE"/>
<path d="M164.56 200.282L164.863 199.64C165.366 198.572 166.639 198.114 167.707 198.618L181.844 205.284C182.908 205.786 183.368 207.066 182.866 208.13L182.564 208.772C182.061 209.841 180.787 210.299 179.719 209.795L165.582 203.129C164.514 202.625 164.057 201.351 164.56 200.282Z" fill="#404B7C"/>
<path d="M161.044 208.339L161.347 207.697C161.851 206.628 163.125 206.171 164.194 206.674L178.34 213.342C179.405 213.843 179.865 215.124 179.363 216.188L179.061 216.83C178.557 217.899 177.282 218.357 176.214 217.853L162.067 211.186C160.999 210.682 160.541 209.408 161.044 208.339Z" fill="#9AB3DA"/>
<path d="M157.236 216.322L157.538 215.68C158.042 214.612 159.316 214.154 160.384 214.658L174.524 221.323C175.588 221.825 176.048 223.105 175.547 224.169L175.244 224.811C174.741 225.879 173.467 226.337 172.399 225.833L158.258 219.168C157.19 218.664 156.732 217.39 157.236 216.322Z" fill="white"/>
<path d="M153.427 224.378L153.73 223.736C154.233 222.668 155.508 222.211 156.576 222.714L170.72 229.379C171.784 229.88 172.244 231.16 171.743 232.224L171.44 232.866C170.936 233.934 169.662 234.392 168.594 233.888L154.45 227.224C153.382 226.72 152.924 225.446 153.427 224.378Z" fill="white"/>
<path d="M195.913 246.126H104.883L111.772 221.411H189.024L195.913 246.126Z" fill="#6B81BE"/>
<path d="M114.258 221.411H187.026" stroke="#ECBDBB" stroke-miterlimit="10" stroke-linecap="round" stroke-linejoin="round"/>
<path d="M119.238 246.167H183.333" stroke="#ECBDBB" stroke-miterlimit="10" stroke-linecap="round" stroke-linejoin="round"/>
<path d="M91.2695 145.898L71.1914 171.897L90.4389 239.805L111.945 221.386L91.2695 145.898Z" fill="#6B81BE"/>
<path d="M209.64 145.898L229.718 171.897L210.47 239.805L188.965 221.386L209.64 145.898Z" fill="#6B81BE"/>
<path d="M217 263.526H181.348" stroke="#404B7C" stroke-miterlimit="10" stroke-linecap="round" stroke-linejoin="round"/>
<path d="M166.845 263.526H82.9102" stroke="#404B7C" stroke-miterlimit="10" stroke-linecap="round" stroke-linejoin="round"/>
<path d="M194.425 272.754H120.703" stroke="#404B7C" stroke-miterlimit="10" stroke-linecap="round" stroke-linejoin="round"/>
<path d="M109.527 272.754H99.6094" stroke="#404B7C" stroke-miterlimit="10" stroke-linecap="round" stroke-linejoin="round"/>
</svg>
