<svg width="24" height="28" viewBox="0 0 24 28" fill="none" xmlns="http://www.w3.org/2000/svg">
<path d="M21.4453 22.4139L17.1094 18.078C17.6875 17.1249 17.9766 16.1014 17.9766 15.0077C17.9766 13.6171 17.5508 12.3827 16.6992 11.3046C15.8477 10.2264 14.7656 9.5155 13.4531 9.17175V3.05457C15.4219 3.30457 17.207 3.98425 18.8086 5.09363C20.4102 6.203 21.6758 7.62878 22.6055 9.37097C23.5352 11.1132 24 12.9921 24 15.0077C24 17.7577 23.1484 20.2264 21.4453 22.4139ZM6.14062 13.4843H0C0.34375 10.7655 1.48828 8.43347 3.43359 6.48816C5.37891 4.54285 7.71094 3.39832 10.4297 3.05457V9.17175C9.38281 9.453 8.47266 9.98035 7.69922 10.7538C6.92578 11.5272 6.40625 12.4374 6.14062 13.4843ZM6.11719 16.5077C6.46094 17.8202 7.17188 18.9022 8.25 19.7538C9.32812 20.6053 10.5625 21.0311 11.9531 21.0311C13.0469 21.0311 14.0703 20.7421 15.0234 20.1639L19.3594 24.4999C17.1719 26.203 14.7031 27.0546 11.9531 27.0546C9.9375 27.0546 8.05859 26.5897 6.31641 25.66C4.57422 24.7303 3.14844 23.4647 2.03906 21.8632C0.929688 20.2616 0.25 18.4764 0 16.5077H6.11719Z" fill="black"/>
</svg>
