<svg width="300" height="300" viewBox="0 0 300 300" fill="none" xmlns="http://www.w3.org/2000/svg">
<path d="M195.884 249.113H242.583" stroke="#6B81BE" stroke-miterlimit="10" stroke-linecap="round" stroke-linejoin="round"/>
<path d="M38.2324 249.113H184.676" stroke="#6B81BE" stroke-miterlimit="10" stroke-linecap="round" stroke-linejoin="round"/>
<path d="M84.6368 259.269H61.2998" stroke="#6B81BE" stroke-miterlimit="10" stroke-linecap="round" stroke-linejoin="round"/>
<path d="M226.228 259.269H92.2354" stroke="#6B81BE" stroke-miterlimit="10" stroke-linecap="round" stroke-linejoin="round"/>
<path d="M161.164 269.425H176.98" stroke="#6B81BE" stroke-miterlimit="10" stroke-linecap="round" stroke-linejoin="round"/>
<path d="M84.8193 269.425H155.944" stroke="#6B81BE" stroke-miterlimit="10" stroke-linecap="round" stroke-linejoin="round"/>
<path d="M72.0623 263.089C72.0623 263.089 22.0691 241.715 23.9482 184.378C23.9482 184.378 76.6561 202.336 72.0623 263.089Z" fill="#404B7C"/>
<path d="M44.4415 211.119C36.5685 211.795 30.3853 209.117 25.7783 205.66C26.791 210.383 28.1689 214.781 29.8253 218.857C33.7282 220.363 38.3587 221.061 43.7851 220.265C52.9793 218.916 60.0312 220.211 65.1463 222.191C63.9461 219.666 62.635 217.29 61.2388 215.059C56.6004 212.382 50.9525 210.56 44.4415 211.119Z" fill="#6B81BE"/>
<path d="M54.603 231.089C46.8103 233.288 40.0973 231.694 34.8652 229.053C37.6743 233.836 40.8231 238.06 44.0723 241.755C47.5891 242.057 51.4693 241.661 55.6806 240.194C61.2503 238.255 66.1683 237.53 70.403 237.504C69.8868 235.195 69.2763 232.978 68.5865 230.847C64.3189 229.846 59.586 229.682 54.603 231.089Z" fill="#6B81BE"/>
<path d="M27.1377 189.882L70.255 259.269" stroke="#ECBDBB" stroke-miterlimit="10" stroke-linecap="round" stroke-linejoin="round"/>
<path d="M67.2628 263.208C67.2628 263.208 46.4736 220.475 5.69824 227.126C5.69824 227.126 13.4855 265.08 67.2628 263.208Z" fill="#9AB3DA"/>
<path d="M14.1123 231.91C14.4941 231.961 62.3245 261.048 62.3245 261.048" stroke="#6B81BE" stroke-miterlimit="10" stroke-linecap="round" stroke-linejoin="round"/>
<path d="M215.999 263.287C215.999 263.287 269.272 252.418 278.978 195.878C278.978 195.878 223.734 202.853 215.999 263.287Z" fill="#404B7C"/>
<path d="M253.52 217.944C261.096 220.192 267.691 218.813 272.9 216.355C270.957 220.778 268.722 224.807 266.279 228.466C262.152 229.156 257.476 228.907 252.321 227.034C243.587 223.861 236.419 223.71 231.01 224.619C232.694 222.388 234.456 220.325 236.273 218.42C241.356 216.733 247.255 216.085 253.52 217.944Z" fill="#6B81BE"/>
<path d="M239.545 235.458C246.735 239.182 253.631 238.972 259.288 237.438C255.573 241.558 251.638 245.061 247.712 248.027C244.206 247.614 240.485 246.445 236.655 244.16C231.59 241.138 226.919 239.438 222.776 238.56C223.747 236.402 224.791 234.354 225.896 232.405C230.278 232.284 234.947 233.077 239.545 235.458Z" fill="#6B81BE"/>
<path d="M274.746 200.626L218.539 259.909" stroke="#ECBDBB" stroke-miterlimit="10" stroke-linecap="round" stroke-linejoin="round"/>
<path d="M213.206 231.743C213.206 231.743 214.286 206.247 235.788 200.784C235.788 200.784 240.087 221.142 213.206 231.743Z" fill="#9AB3DA"/>
<path d="M217.123 93.4032C216.517 93.4032 215.911 93.1718 215.448 92.7094C214.523 91.7841 214.523 90.2838 215.448 89.3585L235.721 69.0863C236.165 68.6421 236.767 68.3925 237.396 68.3925H272.485C273.793 68.3925 274.854 69.4532 274.854 70.7617C274.854 72.0703 273.793 73.131 272.485 73.131H238.377L218.798 92.7094C218.336 93.1718 217.729 93.4032 217.123 93.4032Z" fill="#6B81BE"/>
<path d="M286.561 77.6664C282.597 84.7637 275.183 89.3653 269.997 87.9332C269.034 87.6647 268.213 87.2119 267.544 86.5959L258.209 79.1353L276.989 55.6796L286.33 63.1559L286.356 63.177C289.726 65.6674 289.947 71.6011 286.561 77.6664Z" fill="#6B81BE"/>
<path d="M260.613 80.4257C265.798 81.8583 273.214 77.2571 277.179 70.1575C281.144 63.0579 280.16 56.1409 274.975 54.7082C269.79 53.2756 262.373 57.8716 258.408 64.9712C254.443 72.0708 255.428 78.9931 260.613 80.4257Z" fill="#9AB3DA"/>
<path d="M264.639 73.2162C266.917 73.8455 270.175 71.8241 271.917 68.705C273.659 65.5859 273.227 62.547 270.949 61.9177C268.671 61.2883 265.412 63.3074 263.67 66.4265C261.928 69.5456 262.361 72.5867 264.639 73.2162Z" fill="#404B7C"/>
<path d="M91.8884 220.812C87.9238 227.909 80.5106 232.511 75.3246 231.079C74.3611 230.81 73.5397 230.357 72.8711 229.741L63.5361 222.281L82.3165 198.825L91.6567 206.301L91.6831 206.322C95.0527 208.813 95.2738 214.746 91.8884 220.812Z" fill="#6B81BE"/>
<path d="M65.94 223.571C71.1251 225.004 78.5412 220.402 82.5061 213.303C86.4709 206.203 85.4872 199.286 80.3022 197.854C75.1171 196.421 67.7002 201.017 63.7353 208.117C59.7705 215.216 60.7549 222.138 65.94 223.571Z" fill="#9AB3DA"/>
<path d="M69.966 216.362C72.244 216.991 75.5021 214.969 77.244 211.85C78.9859 208.731 78.5537 205.692 76.2758 205.063C73.9978 204.434 70.7393 206.453 68.9974 209.572C67.2555 212.691 67.688 215.732 69.966 216.362Z" fill="#404B7C"/>
<path d="M118.083 219.199H89.379C88.0705 219.199 87.0098 218.138 87.0098 216.83C87.0098 215.521 88.0705 214.461 89.379 214.461H117.102L131.305 200.257C132.23 199.332 133.73 199.332 134.656 200.257C135.581 201.182 135.581 202.683 134.656 203.608L119.758 218.505C119.314 218.95 118.711 219.199 118.083 219.199Z" fill="#6B81BE"/>
<path d="M125.256 58.2681C121.291 65.3653 113.878 69.967 108.692 68.5349C107.728 68.2664 106.907 67.8136 106.238 67.1976L96.9033 59.737L115.684 36.2812L125.024 43.7576L125.05 43.7787C128.42 46.2691 128.641 52.2027 125.256 58.2681Z" fill="#6B81BE"/>
<path d="M99.3072 61.0274C104.492 62.46 111.908 57.8588 115.873 50.7592C119.838 43.6596 118.854 36.7425 113.669 35.3099C108.484 33.8773 101.067 38.4732 97.1025 45.5728C93.1377 52.6724 94.1221 59.5947 99.3072 61.0274Z" fill="#9AB3DA"/>
<path d="M103.333 53.8178C105.611 54.4472 108.869 52.4258 110.611 49.3067C112.353 46.1876 111.921 43.1487 109.643 42.5193C107.365 41.8899 104.106 43.9091 102.365 47.0282C100.623 50.1472 101.055 53.1884 103.333 53.8178Z" fill="#404B7C"/>
<path d="M159.122 76.6824C158.515 76.6824 157.909 76.451 157.446 75.9885L137.868 56.4104H120.325C119.017 56.4104 117.956 55.3497 117.956 54.0411C117.956 52.7326 119.017 51.6719 120.325 51.6719H138.849C139.477 51.6719 140.08 51.9215 140.525 52.3657L160.797 72.6377C161.722 73.5629 161.722 75.063 160.797 75.9885C160.335 76.451 159.728 76.6824 159.122 76.6824Z" fill="#404B7C"/>
<path d="M59.7605 123.017C55.7959 130.114 48.3827 134.716 43.1966 133.283C42.2331 133.015 41.4118 132.562 40.7431 131.946L31.4082 124.486L50.1886 101.03L59.5288 108.506L59.5551 108.527C62.9247 111.018 63.1459 116.951 59.7605 123.017Z" fill="#6B81BE"/>
<path d="M33.8121 125.776C38.9971 127.209 46.4133 122.607 50.3781 115.508C54.343 108.408 53.3593 101.491 48.1742 100.058C42.9891 98.6258 35.5722 103.222 31.6074 110.321C27.6426 117.421 28.627 124.343 33.8121 125.776Z" fill="#9AB3DA"/>
<path d="M37.8381 118.566C40.116 119.196 43.3742 117.174 45.1161 114.055C46.8579 110.936 46.4258 107.897 44.1478 107.268C41.8698 106.638 38.6114 108.658 36.8695 111.777C35.1276 114.896 35.5601 117.937 37.8381 118.566Z" fill="#404B7C"/>
<path d="M88.6736 141.07C88.0672 141.07 87.461 140.839 86.9982 140.376L67.4204 120.798H54.7072C53.3986 120.798 52.3379 119.737 52.3379 118.429C52.3379 117.12 53.3986 116.059 54.7072 116.059H68.4017C69.03 116.059 69.6326 116.309 70.0771 116.753L90.349 137.026C91.2743 137.951 91.2743 139.451 90.349 140.376C89.8863 140.839 89.2798 141.07 88.6736 141.07Z" fill="#404B7C"/>
<path d="M114.331 133.076L142.962 155.685L131.409 151.174L102.777 128.565L114.331 133.076Z" fill="#404B7C"/>
<path d="M158.849 67.9485L187.48 90.5573L190.526 104.011L161.895 81.4018L158.849 67.9485Z" fill="#404B7C"/>
<path d="M112.674 171.748L141.305 194.356L125.958 202.811L97.3271 180.202L112.674 171.748Z" fill="#404B7C"/>
<path d="M204.628 64.1771L233.259 86.7859L224.824 103.604L196.192 80.9951L204.628 64.1771Z" fill="#9AB3DA"/>
<path d="M174.49 112.918L203.121 135.527C202.134 134.748 200.973 134.157 199.64 133.789C191.202 131.457 179.131 138.937 172.678 150.492C167.244 160.223 167.523 169.749 172.787 173.906L144.156 151.298C138.891 147.141 138.612 137.614 144.047 127.883C150.5 116.328 162.57 108.849 171.009 111.18C172.341 111.548 173.503 112.139 174.49 112.918Z" fill="#404B7C"/>
<path d="M148.805 204.219L120.174 181.61C120.897 182.181 121.657 182.713 122.453 183.204L151.085 205.813C150.288 205.322 149.529 204.79 148.805 204.219Z" fill="white" stroke="#272525" stroke-miterlimit="10"/>
<path d="M198.45 82.5763L227.082 105.185C230.331 107.751 232.846 111.105 234.6 115.068L205.969 92.4588C204.214 88.496 201.699 85.1421 198.45 82.5763Z" fill="#404B7C"/>
<path d="M128.172 203.669L156.803 226.278C154.028 226.096 151.328 225.664 148.732 224.946C146.564 224.347 144.54 223.566 142.641 222.645L114.01 200.036C115.908 200.957 117.933 201.738 120.101 202.338C122.697 203.055 125.397 203.488 128.172 203.669Z" fill="#404B7C"/>
<path d="M138.334 187.196L166.965 209.805L156.803 226.278L128.172 203.669L138.334 187.196Z" fill="#6B81BE"/>
<path d="M156.754 182.806L185.385 205.415C179.102 208.155 172.851 209.684 166.965 209.805L138.334 187.196C144.22 187.075 150.47 185.546 156.754 182.806Z" fill="#404B7C"/>
<path d="M221.325 83.9988L249.956 106.608C251.594 111.487 252.447 116.94 252.494 122.814L223.862 100.205C223.816 94.3313 222.962 88.8777 221.325 83.9988Z" fill="#9AB3DA"/>
<path d="M223.862 100.205L252.494 122.814L237.524 133.136L208.893 110.527L223.862 100.205Z" fill="#404B7C"/>
<path d="M208.892 110.528L237.523 133.136C237.208 139.561 235.694 146.529 232.937 153.738L204.306 131.129C207.062 123.92 208.577 116.952 208.892 110.528Z" fill="#404B7C"/>
<path d="M208.893 110.528L235.518 131.552" stroke="#DEEBFF" stroke-miterlimit="10" stroke-linecap="round" stroke-linejoin="round"/>
<path d="M192.554 152.702L221.185 175.311C216.358 182.014 210.824 187.97 204.924 192.975L176.293 170.367C182.193 165.361 187.727 159.405 192.554 152.702Z" fill="#404B7C"/>
<path d="M177.274 185.211L205.905 207.82C200.229 212.22 194.337 215.942 188.425 218.867L159.794 196.258C165.705 193.333 171.598 189.611 177.274 185.211Z" fill="#6B81BE"/>
<path d="M176.293 170.367L204.924 192.975L205.905 207.82L177.274 185.211L176.293 170.367Z" fill="#9AB3DA"/>
<path d="M205.301 154.913L233.932 177.522L221.185 175.311L192.554 152.702L205.301 154.913Z" fill="#404B7C"/>
<path d="M192.554 152.702L219.07 173.64" stroke="#DEEBFF" stroke-miterlimit="10" stroke-linecap="round" stroke-linejoin="round"/>
<path d="M215.859 135.64L244.491 158.249C242.956 161.773 241.198 165.319 239.212 168.875C237.557 171.839 235.796 174.723 233.932 177.522L205.301 154.913C207.165 152.115 208.926 149.23 210.581 146.266C212.567 142.71 214.324 139.165 215.859 135.64Z" fill="#9AB3DA"/>
<path d="M205.301 154.913L192.554 152.702C187.727 159.405 182.193 165.361 176.293 170.367L177.274 185.211C171.598 189.611 165.706 193.333 159.794 196.258L156.754 182.806C150.47 185.546 144.22 187.075 138.334 187.196L128.172 203.669C125.397 203.488 122.697 203.055 120.101 202.338C117.933 201.738 115.909 200.957 114.01 200.036L122.454 183.204C118.089 180.515 114.815 176.585 112.673 171.748L97.3267 180.202C95.6802 175.329 94.8218 169.874 94.7803 164.001L109.749 153.67C110.066 147.263 111.584 140.28 114.331 133.076L102.778 128.565C104.318 125.042 106.07 121.495 108.056 117.939C109.711 114.975 111.483 112.093 113.347 109.295L126.089 111.504C130.912 104.808 136.449 98.8454 142.359 93.8341L141.364 79.002C147.049 74.5966 152.937 70.8736 158.848 67.9485L161.894 81.4019C168.168 78.6677 174.427 77.1244 180.308 77.0103L190.471 60.5374C193.245 60.7187 195.951 61.153 198.546 61.8702C200.71 62.4679 202.738 63.2426 204.628 64.1771L196.193 80.9951C200.553 83.6918 203.827 87.6217 205.969 92.4588L221.325 83.9988C222.962 88.8778 223.815 94.3314 223.862 100.205L208.892 110.527C208.577 116.952 207.063 123.92 204.306 131.129L215.86 135.64C214.325 139.165 212.567 142.71 210.581 146.266C208.926 149.23 207.165 152.115 205.301 154.913ZM147.635 153.035C156.073 155.366 168.143 147.878 174.596 136.323C181.048 124.769 179.447 113.512 171.009 111.18C162.57 108.849 150.499 116.328 144.047 127.883C137.594 139.437 139.196 150.703 147.635 153.035Z" fill="#6B81BE"/>
<path d="M209.674 90.418L221.325 83.9988L229.911 90.7787" stroke="#DEEBFF" stroke-miterlimit="10" stroke-linecap="round" stroke-linejoin="round"/>
<path d="M161.052 195.623C166.54 192.801 172.001 189.299 177.274 185.211" stroke="#DEEBFF" stroke-miterlimit="10" stroke-linecap="round" stroke-linejoin="round"/>
<path d="M138.334 187.196L128.715 202.789" stroke="#DEEBFF" stroke-miterlimit="10" stroke-linecap="round" stroke-linejoin="round"/>
<path d="M275.424 142.042H230.693C229.385 142.042 228.324 140.981 228.324 139.673C228.324 138.364 229.385 137.303 230.693 137.303H275.424C276.732 137.303 277.793 138.364 277.793 139.673C277.793 140.981 276.732 142.042 275.424 142.042Z" fill="#6B81BE"/>
<path d="M291.87 148.676C287.905 155.774 280.492 160.375 275.306 158.943C274.343 158.675 273.521 158.222 272.853 157.606L263.518 150.145L282.298 126.689L291.638 134.166L291.665 134.187C295.034 136.677 295.255 142.611 291.87 148.676Z" fill="#6B81BE"/>
<path d="M265.921 151.436C271.107 152.868 278.523 148.267 282.487 141.167C286.452 134.068 285.469 127.151 280.284 125.718C275.098 124.285 267.682 128.881 263.717 135.981C259.752 143.081 260.736 150.003 265.921 151.436Z" fill="#9AB3DA"/>
<path d="M269.947 144.226C272.225 144.855 275.484 142.834 277.225 139.715C278.967 136.596 278.535 133.557 276.257 132.928C273.979 132.298 270.721 134.317 268.979 137.436C267.237 140.555 267.669 143.597 269.947 144.226Z" fill="#404B7C"/>
<path d="M252.494 202.478H223.79C223.162 202.478 222.559 202.229 222.115 201.784L207.218 186.887C206.292 185.962 206.292 184.461 207.218 183.537C208.142 182.611 209.643 182.611 210.568 183.537L224.772 197.74H252.494C253.802 197.74 254.863 198.801 254.863 200.109C254.863 201.418 253.802 202.478 252.494 202.478Z" fill="#6B81BE"/>
<path d="M270.051 208.385C266.087 215.482 258.674 220.084 253.488 218.652C252.524 218.383 251.703 217.931 251.034 217.315L241.699 209.854L260.48 186.398L269.82 193.875L269.846 193.896C273.216 196.386 273.437 202.32 270.051 208.385Z" fill="#6B81BE"/>
<path d="M244.103 211.144C249.288 212.577 256.704 207.976 260.669 200.876C264.634 193.776 263.65 186.859 258.465 185.427C253.28 183.994 245.863 188.59 241.898 195.69C237.934 202.789 238.918 209.712 244.103 211.144Z" fill="#9AB3DA"/>
<path d="M248.129 203.935C250.407 204.564 253.665 202.543 255.407 199.424C257.149 196.305 256.717 193.266 254.439 192.636C252.161 192.007 248.902 194.026 247.161 197.145C245.419 200.264 245.851 203.305 248.129 203.935Z" fill="#404B7C"/>
<path d="M67.1875 35.6254V38.4098" stroke="#6B81BE" stroke-miterlimit="10" stroke-linecap="round" stroke-linejoin="round"/>
<path d="M67.1875 41.382V44.1664" stroke="#6B81BE" stroke-miterlimit="10" stroke-linecap="round" stroke-linejoin="round"/>
<path d="M71.4583 39.8959H68.6738" stroke="#6B81BE" stroke-miterlimit="10" stroke-linecap="round" stroke-linejoin="round"/>
<path d="M65.7015 39.8959H62.917" stroke="#6B81BE" stroke-miterlimit="10" stroke-linecap="round" stroke-linejoin="round"/>
<path d="M40.4238 148.431V151.216" stroke="#6B81BE" stroke-miterlimit="10" stroke-linecap="round" stroke-linejoin="round"/>
<path d="M40.4238 154.188V156.972" stroke="#6B81BE" stroke-miterlimit="10" stroke-linecap="round" stroke-linejoin="round"/>
<path d="M44.6946 152.702H41.9102" stroke="#6B81BE" stroke-miterlimit="10" stroke-linecap="round" stroke-linejoin="round"/>
<path d="M38.9378 152.702H36.1533" stroke="#6B81BE" stroke-miterlimit="10" stroke-linecap="round" stroke-linejoin="round"/>
<path d="M204.306 216.917V219.247" stroke="#6B81BE" stroke-miterlimit="10" stroke-linecap="round" stroke-linejoin="round"/>
<path d="M204.306 221.735V224.066" stroke="#6B81BE" stroke-miterlimit="10" stroke-linecap="round" stroke-linejoin="round"/>
<path d="M207.88 220.491H205.55" stroke="#6B81BE" stroke-miterlimit="10" stroke-linecap="round" stroke-linejoin="round"/>
<path d="M203.062 220.491H200.731" stroke="#6B81BE" stroke-miterlimit="10" stroke-linecap="round" stroke-linejoin="round"/>
<path d="M234.601 30.5748V33.4916" stroke="#6B81BE" stroke-miterlimit="10" stroke-linecap="round" stroke-linejoin="round"/>
<path d="M234.601 36.605V39.5218" stroke="#6B81BE" stroke-miterlimit="10" stroke-linecap="round" stroke-linejoin="round"/>
<path d="M239.074 35.0482H236.157" stroke="#6B81BE" stroke-miterlimit="10" stroke-linecap="round" stroke-linejoin="round"/>
<path d="M233.044 35.0482H230.127" stroke="#6B81BE" stroke-miterlimit="10" stroke-linecap="round" stroke-linejoin="round"/>
<path d="M38.1122 92.559C39.3888 92.559 40.4237 91.5241 40.4237 90.2475C40.4237 88.9709 39.3888 87.936 38.1122 87.936C36.8357 87.936 35.8008 88.9709 35.8008 90.2475C35.8008 91.5241 36.8357 92.559 38.1122 92.559Z" stroke="#6B81BE" stroke-miterlimit="10" stroke-linecap="round" stroke-linejoin="round"/>
<path d="M253.059 94.1801C254.335 94.1801 255.37 93.1452 255.37 91.8686C255.37 90.592 254.335 89.5571 253.059 89.5571C251.782 89.5571 250.747 90.592 250.747 91.8686C250.747 93.1452 251.782 94.1801 253.059 94.1801Z" stroke="#6B81BE" stroke-miterlimit="10" stroke-linecap="round" stroke-linejoin="round"/>
<path d="M69.5263 63.09C70.4188 63.09 71.1424 62.3665 71.1424 61.4739C71.1424 60.5813 70.4188 59.8578 69.5263 59.8578C68.6337 59.8578 67.9102 60.5813 67.9102 61.4739C67.9102 62.3665 68.6337 63.09 69.5263 63.09Z" fill="#E9F3FF"/>
<path d="M253.058 168.404C254.373 168.404 255.439 167.338 255.439 166.023C255.439 164.708 254.373 163.641 253.058 163.641C251.743 163.641 250.677 164.708 250.677 166.023C250.677 167.338 251.743 168.404 253.058 168.404Z" fill="#E9F3FF"/>
<path d="M206 47.2564C207.548 47.2564 208.802 46.002 208.802 44.4546C208.802 42.9071 207.548 41.6527 206 41.6527C204.453 41.6527 203.198 42.9071 203.198 44.4546C203.198 46.002 204.453 47.2564 206 47.2564Z" fill="#E9F3FF"/>
<path d="M100.88 190.365L98.812 201.26L93.9111 200.415L95.4238 189.425L100.88 190.365Z" fill="#ECBDBB"/>
<path d="M101.92 195.149L93.1505 196.749C93.1505 196.749 91.5243 202.928 82.4089 211.586C76.5734 217.129 78.8523 220.491 78.8523 220.491L96.9747 217.184L100.229 208.706L101.916 216.283L106.848 215.383C105.137 203.423 101.92 195.149 101.92 195.149Z" fill="#404B7C"/>
<path d="M149.748 141.738C143.951 143.876 117.162 143.123 117.162 143.123L116.141 148.578L108.338 190.156C94.328 194.91 77.8115 187.402 77.8115 187.402C77.8115 187.402 78.2011 185.886 78.875 183.343V183.338C82.0867 171.244 91.6744 136.015 95.8285 131.103C101.33 124.596 150.627 118.841 150.627 118.841C156.882 124.348 160.262 137.858 149.748 141.738Z" fill="#9AB3DA"/>
<path d="M96.0156 184.243L105.774 136.107H140.088C140.088 136.107 148.374 133.73 148.499 123.846" stroke="#DEEBFF" stroke-miterlimit="10" stroke-linecap="round" stroke-linejoin="round"/>
<path d="M149.748 141.738C143.951 143.876 117.162 143.123 117.162 143.123L116.141 148.578L96.9078 140.612L78.875 183.338C82.0867 171.244 91.6743 136.015 95.8284 131.103C101.33 124.596 150.627 118.841 150.627 118.841C156.882 124.348 160.262 137.858 149.748 141.738Z" fill="#404B7C"/>
<path d="M80.8145 183.724C80.8145 183.724 93.3793 189.873 106.849 186.026" stroke="#DEEBFF" stroke-miterlimit="10" stroke-linecap="round" stroke-linejoin="round"/>
<path d="M70.0841 180.326L64.4283 189.864L60.1084 187.401L65.2752 177.584L70.0841 180.326Z" fill="#ECBDBB"/>
<path d="M67.2302 189.479L60.9238 183.179C60.9238 183.179 54.9179 185.358 42.6111 182.79C34.7326 181.146 33.2646 184.934 33.2646 184.934L46.2974 197.953L55.1212 195.804L49.851 201.503L53.3981 205.046C62.2582 196.832 67.2302 189.479 67.2302 189.479Z" fill="#404B7C"/>
<path d="M147.655 115.401L143.474 124.251C143.474 124.251 94.7028 115.276 87.7591 118.842C80.8155 122.407 56.2314 171.388 56.2314 171.388C56.2314 171.388 62.4899 184.228 78.8778 183.344C78.8778 183.344 90.6766 140.35 94.5663 133.162C94.5663 133.162 123.711 148.794 138.911 149.732C154.112 150.671 165.14 147.841 168.427 137.303C174.687 117.234 157.671 108.152 147.655 115.401Z" fill="#9AB3DA"/>
<path d="M60.1094 170.888C60.1094 170.888 67.8953 180.158 79.8742 179.585" stroke="#DEEBFF" stroke-miterlimit="10" stroke-linecap="round" stroke-linejoin="round"/>
<path d="M71.9326 175.249L93.3264 127.094C93.3264 127.094 130.359 136.983 142.557 138.484C154.755 139.985 157.164 127.094 157.164 127.094" stroke="#DEEBFF" stroke-miterlimit="10" stroke-linecap="round" stroke-linejoin="round"/>
<path d="M151.878 125.598L151.166 127.344C150.346 129.352 150.429 131.616 151.394 133.558L152.427 135.64" stroke="#DEEBFF" stroke-miterlimit="10" stroke-linecap="round" stroke-linejoin="round"/>
<path d="M156.687 41.9336C156.687 41.9336 156.717 41.8521 156.787 41.7094C157.275 40.7015 159.667 36.6359 166.492 36.6035C174.284 36.5666 178.328 45.6273 176.377 49.7725C174.427 53.9177 179.066 55.1798 183.915 56.6091C188.763 58.0383 193.156 63.9545 189.402 70.1371C185.649 76.3197 163.439 80.1045 161.252 73.5009C159.064 66.8972 163.034 60.9443 161.868 55.5588L156.687 41.9336Z" fill="#404B7C"/>
<path d="M163.839 54.1748L164.071 57.9266L164.306 61.7297L168.244 61.741L168.51 54.5674L168.59 52.3818L163.839 54.1748Z" fill="#ECBDBB"/>
<path d="M163.839 54.1748L164.185 59.7757C167.885 59.2438 168.088 56.8645 168.498 54.8842L168.59 52.3818L163.839 54.1748Z" fill="#404B7C"/>
<path d="M158.904 81.7827C155.351 94.0698 140.696 113.385 136.786 114.71C133.169 115.939 114.172 109.427 105.757 106.421C103.296 105.536 101.741 104.956 101.741 104.956C101.741 104.956 98.4732 98.3537 104.817 95.9982L108.997 96.5363L132.483 99.5463C132.483 99.5463 140.164 81.008 144.609 76.0593C147.47 72.8689 150.786 72.4475 153.567 72.9556C157.611 73.6917 160.046 77.8317 158.904 81.7827Z" fill="#3F72AF"/>
<path d="M105.758 106.416L105.757 106.421C103.296 105.536 101.741 104.956 101.741 104.956C101.741 104.956 98.4731 98.3537 104.817 95.9982L108.997 96.5363C109.112 96.7583 111.629 101.843 105.758 106.416Z" fill="#9AB3DA"/>
<path d="M103.7 97.2538L100.547 95.4922L97.5148 93.7787C96.4819 93.1951 95.2064 93.2522 94.2297 93.9259L92.0322 95.4417C91.0578 96.1138 90.5512 97.2823 90.7267 98.453L91.1373 101.192L98.7062 103.243L101.489 102.781L104.206 103.517C104.206 103.517 105.842 102.501 106.222 100.141C106.603 97.7813 103.7 97.2538 103.7 97.2538Z" fill="#ECBDBB"/>
<path d="M92.719 101.27L92.4072 98.0256L93.8198 96.2211" stroke="#404B7C" stroke-miterlimit="10" stroke-linecap="round" stroke-linejoin="round"/>
<path d="M96.1522 96.853L94.4971 98.8349L94.8023 101.834" stroke="#404B7C" stroke-miterlimit="10" stroke-linecap="round" stroke-linejoin="round"/>
<path d="M98.2504 97.8105L97.06 99.6024L96.5312 102.181" stroke="#404B7C" stroke-miterlimit="10" stroke-linecap="round" stroke-linejoin="round"/>
<path d="M150.318 98.9049C145.047 106.993 139.075 113.934 136.786 114.71C133.325 115.885 115.788 109.976 106.907 106.83" stroke="#ECBDBB" stroke-miterlimit="10" stroke-linecap="round" stroke-linejoin="round"/>
<path d="M133.669 100.708C134.616 101.73 135.913 103.354 136.714 105.293" stroke="#ECBDBB" stroke-miterlimit="10" stroke-linecap="round" stroke-linejoin="round"/>
<path d="M176.566 64.1033C176.566 64.1033 168.646 58.2419 158.443 60.5136L158.889 66.194L174.027 69.259L176.566 64.1033Z" fill="#3F72AF"/>
<path d="M176 130.503C178.042 114.999 181.796 90.8587 183.214 81.8404C183.606 79.3483 182.901 76.8096 181.265 74.8892C178.569 71.7252 173.771 67.2869 167.198 65.8637C156.605 63.5699 148.443 70.5459 148.443 70.5459C148.443 70.5459 141.017 77.699 140.136 81.8932C139.254 86.0875 139.419 98.3102 139.419 98.3102C139.419 98.3102 134.764 110.107 130.553 119.677C130.553 119.677 148.976 128.003 176 130.503Z" fill="#3F72AF"/>
<path d="M139.656 86.1605C139.326 91.3755 139.419 98.3102 139.419 98.3102C139.419 98.3102 134.764 110.107 130.553 119.677" stroke="#ECBDBB" stroke-miterlimit="10" stroke-linecap="round" stroke-linejoin="round"/>
<path d="M174.069 127.094C174.069 127.094 144.078 122.407 133.152 117.234" stroke="#ECBDBB" stroke-miterlimit="10" stroke-linecap="round" stroke-linejoin="round"/>
<path d="M173.226 68.1659C171.426 67.1655 169.413 66.3433 167.198 65.8637C164.82 65.3488 162.564 65.301 160.496 65.5365" stroke="#ECBDBB" stroke-miterlimit="10" stroke-linecap="round" stroke-linejoin="round"/>
<path d="M163.362 42.5647C167.936 44.4356 171.676 57.412 164.056 58.908C156.437 60.404 154.045 38.7533 163.362 42.5647Z" fill="#ECBDBB"/>
<path d="M169.453 52.6857C169.453 52.6857 167.552 49.1015 165.421 46.9819C165.421 46.9819 161.154 50.3972 157.054 49.4109C152.955 48.4247 149.922 41.1059 153.118 39.2481C156.315 37.3903 158.496 40.5511 158.496 40.5511C158.496 40.5511 172.509 34.7507 169.453 52.6857Z" fill="#404B7C"/>
<path d="M167.709 51.7009C167.709 51.7009 168.401 46.7181 172.386 47.2591C176.371 47.8001 173.63 55.5605 167.801 53.7187L167.709 51.7009Z" fill="#ECBDBB"/>
<path d="M169.335 52.6772C169.438 52.6658 169.529 52.5926 169.557 52.4862C169.565 52.4573 170.359 49.6034 172.62 49.0006C172.759 48.9638 172.842 48.8213 172.805 48.6825C172.768 48.5432 172.625 48.4614 172.487 48.4982C169.931 49.1789 169.089 52.2221 169.055 52.3514C169.018 52.4901 169.1 52.6326 169.239 52.6696C169.271 52.6784 169.303 52.6807 169.335 52.6772Z" fill="#404B7C"/>
<path d="M171.376 51.9753C171.515 51.9599 171.618 51.8366 171.607 51.6958C171.604 51.6606 171.526 50.8185 170.784 49.8824C170.695 49.7699 170.531 49.7504 170.419 49.8402C170.306 49.9293 170.287 50.0929 170.377 50.2055C171.015 51.0104 171.088 51.7327 171.088 51.7398C171.101 51.8825 171.227 51.9882 171.37 51.9757C171.372 51.9758 171.374 51.9755 171.376 51.9753Z" fill="#404B7C"/>
<path d="M165.361 49.9187C165.361 49.9187 164.257 48.3553 163.073 49.203C163.073 49.203 162.978 48.8235 162.64 48.8676C162.302 48.9117 162.433 49.9694 162.433 49.9694C162.433 49.9694 163.957 49.6008 165.361 49.9187Z" fill="#404B7C"/>
<path d="M158.258 51.8562C158.258 51.8562 158.092 50.1141 159.163 50.4369C159.163 50.4369 159.139 50.1144 159.35 50.0446C159.714 49.9239 159.945 50.9031 159.945 50.9031C159.945 50.9031 158.873 51.0907 158.258 51.8562Z" fill="#404B7C"/>
<path d="M164.019 53.0753C164.409 53.0017 164.651 52.5513 164.56 52.0693C164.469 51.5872 164.079 51.256 163.689 51.3296C163.299 51.4031 163.057 51.8536 163.148 52.3356C163.239 52.8177 163.629 53.1488 164.019 53.0753Z" fill="#404B7C"/>
<path d="M163.64 52.1132C163.746 52.1132 163.831 52.0276 163.831 51.9221C163.831 51.8166 163.746 51.7311 163.64 51.7311C163.535 51.7311 163.449 51.8166 163.449 51.9221C163.449 52.0276 163.535 52.1132 163.64 52.1132Z" fill="white"/>
<path d="M159.86 53.8598C160.249 53.7863 160.492 53.3359 160.401 52.8538C160.31 52.3718 159.92 52.0406 159.53 52.1141C159.14 52.1877 158.898 52.6381 158.989 53.1202C159.08 53.6022 159.47 53.9334 159.86 53.8598Z" fill="#404B7C"/>
<path d="M159.481 52.8977C159.587 52.8977 159.672 52.8122 159.672 52.7067C159.672 52.6012 159.587 52.5156 159.481 52.5156C159.376 52.5156 159.29 52.6012 159.29 52.7067C159.29 52.8122 159.376 52.8977 159.481 52.8977Z" fill="white"/>
<path d="M161.863 55.6524C162.075 55.629 162.269 55.568 162.406 55.5051C162.536 55.4452 162.593 55.2913 162.533 55.1608C162.474 55.0307 162.319 54.9726 162.189 55.032C162.182 55.0354 161.483 55.3454 161.213 54.9147C161.155 54.8218 161.172 54.7826 161.178 54.7676C161.242 54.6189 161.615 54.4722 161.859 54.4233C161.998 54.3956 162.09 54.2613 162.064 54.122L161.755 52.4124C161.73 52.2708 161.594 52.1801 161.453 52.2025C161.312 52.2281 161.218 52.3634 161.243 52.5047L161.509 53.9771C161.237 54.0629 160.84 54.2386 160.701 54.5612C160.641 54.7005 160.604 54.9227 160.773 55.1913C161.037 55.6129 161.479 55.6949 161.863 55.6524Z" fill="#404B7C"/>
<path d="M162.13 57.2255C162.13 57.2255 164.215 58.1476 165.04 55.6282L162.13 57.2255Z" fill="white"/>
<path d="M183.723 80.7746C183.508 93.5634 174.415 116.04 170.987 118.341C167.818 120.473 147.779 119.157 138.87 118.456C136.264 118.246 134.611 118.093 134.611 118.093C134.611 118.093 129.73 112.575 135.238 108.642L139.413 108.069L162.869 104.831C162.869 104.831 165.433 84.9287 168.428 78.9897C170.355 75.162 173.446 73.8879 176.263 73.651C180.359 73.3035 183.792 76.6626 183.723 80.7746Z" fill="#3F72AF"/>
<path d="M138.87 118.451V118.457C136.264 118.246 134.611 118.093 134.611 118.093C134.611 118.093 129.73 112.575 135.238 108.643L139.413 108.069C139.581 108.253 143.34 112.502 138.87 118.451Z" fill="#9AB3DA"/>
<path d="M134.487 110.147L130.984 109.271L127.609 108.41C126.459 108.117 125.243 108.506 124.477 109.412L122.752 111.45C121.987 112.353 121.804 113.613 122.28 114.697L123.393 117.234H131.234L133.799 116.059H136.614C136.614 116.059 137.928 114.651 137.678 112.274C137.427 109.897 134.487 110.147 134.487 110.147Z" fill="#ECBDBB"/>
<path d="M124.939 116.895L123.79 113.845L124.681 111.734" stroke="#404B7C" stroke-miterlimit="10" stroke-linecap="round" stroke-linejoin="round"/>
<path d="M127.098 111.734L126.019 114.08L127.098 116.895" stroke="#404B7C" stroke-miterlimit="10" stroke-linecap="round" stroke-linejoin="round"/>
<path d="M129.374 112.109L128.693 114.15L128.858 116.778" stroke="#404B7C" stroke-miterlimit="10" stroke-linecap="round" stroke-linejoin="round"/>
<path d="M179.914 99.5468C176.942 108.732 172.994 116.994 170.987 118.341C167.955 120.381 149.482 119.264 140.088 118.551" stroke="#ECBDBB" stroke-miterlimit="10" stroke-linecap="round" stroke-linejoin="round"/>
<path d="M140.408 107.931L162.869 104.831C162.869 104.831 165.433 84.9287 168.429 78.9897C170.356 75.162 173.446 73.8879 176.263 73.651C177.266 73.5659 178.23 73.7031 179.111 74.0192" stroke="#ECBDBB" stroke-miterlimit="10" stroke-linecap="round" stroke-linejoin="round"/>
<path d="M162.869 104.831C162.869 104.831 166.25 106.409 168.455 109.271" stroke="#ECBDBB" stroke-miterlimit="10" stroke-linecap="round" stroke-linejoin="round"/>
<path d="M141.517 117.215H121.365C120.791 117.215 120.325 117.681 120.325 118.255V120.805C120.325 121.379 120.791 121.845 121.365 121.845H139.2C141.053 121.845 142.556 120.342 142.556 118.488V118.255C142.556 117.681 142.091 117.215 141.517 117.215Z" fill="#6B81BE"/>
<path d="M141.517 117.215H121.365C120.791 117.215 120.325 117.681 120.325 118.255V120.805C120.325 121.379 120.791 121.845 121.365 121.845H139.2C141.053 121.845 142.556 120.342 142.556 118.488V118.255C142.556 117.681 142.091 117.215 141.517 117.215Z" stroke="#DEEBFF" stroke-miterlimit="10" stroke-linecap="round" stroke-linejoin="round"/>
<path d="M122.452 121.844H81.1366C79.7245 121.844 78.4838 120.908 78.0974 119.549L69.4361 89.1135C69.0722 87.835 70.0324 86.5635 71.3617 86.5635H112.677C114.09 86.5635 115.33 87.5003 115.717 88.8585L124.378 119.294C124.742 120.573 123.782 121.844 122.452 121.844Z" fill="#9AB3DA"/>
<path d="M120.325 121.844H79.0096C77.5976 121.844 76.3569 120.908 75.9704 119.549L67.3091 89.1135C66.9453 87.835 67.9055 86.5635 69.2347 86.5635H110.551C111.963 86.5635 113.203 87.5003 113.59 88.8585L122.251 119.294C122.615 120.573 121.655 121.844 120.325 121.844Z" fill="#6B81BE"/>
</svg>
