<svg width="300" height="300" viewBox="0 0 300 300" fill="none" xmlns="http://www.w3.org/2000/svg">
<path d="M179.055 262.752H120.075C119.996 262.752 119.92 262.72 119.863 262.664C119.807 262.608 119.775 262.532 119.775 262.452C119.775 262.372 119.807 262.296 119.863 262.24C119.92 262.184 119.996 262.152 120.075 262.152H179.055C179.135 262.152 179.211 262.184 179.268 262.24C179.324 262.296 179.355 262.372 179.355 262.452C179.355 262.532 179.324 262.608 179.268 262.664C179.211 262.72 179.135 262.752 179.055 262.752Z" fill="#404B7C"/>
<path d="M216.254 264.798H172.754C172.675 264.798 172.598 264.766 172.542 264.71C172.486 264.654 172.454 264.578 172.454 264.498C172.454 264.418 172.486 264.342 172.542 264.286C172.598 264.23 172.675 264.198 172.754 264.198H216.254C216.334 264.198 216.41 264.23 216.466 264.286C216.522 264.342 216.554 264.418 216.554 264.498C216.554 264.578 216.522 264.654 216.466 264.71C216.41 264.766 216.334 264.798 216.254 264.798Z" fill="#404B7C"/>
<path d="M163.161 267.102H142.161C142.082 267.102 142.005 267.07 141.949 267.014C141.893 266.958 141.861 266.882 141.861 266.802C141.861 266.722 141.893 266.646 141.949 266.59C142.005 266.534 142.082 266.502 142.161 266.502H163.161C163.241 266.502 163.317 266.534 163.373 266.59C163.43 266.646 163.461 266.722 163.461 266.802C163.461 266.882 163.43 266.958 163.373 267.014C163.317 267.07 163.241 267.102 163.161 267.102Z" fill="#404B7C"/>
<path d="M253.532 262.452C253.532 262.452 261.374 259.05 262.292 254.874C263.21 250.698 257.09 248.736 252.926 255.15C251.15 257.704 249.214 260.143 247.13 262.452H253.532Z" fill="#9AB3DA"/>
<path d="M228.478 262.452C228.478 262.452 220.978 255.198 220.456 246.3C219.934 237.402 228.856 239.1 230.758 245.598C232.66 252.096 234.856 262.452 234.856 262.452H228.478Z" fill="#404B7C"/>
<path d="M231.255 261.798C231.203 261.798 231.152 261.785 231.107 261.76C231.062 261.735 231.024 261.698 230.997 261.654C227.055 255.09 224.019 243.096 223.983 243C223.964 242.92 223.977 242.837 224.02 242.767C224.063 242.697 224.132 242.647 224.211 242.628C224.291 242.609 224.375 242.622 224.444 242.665C224.514 242.708 224.564 242.776 224.583 242.856C224.583 242.976 227.619 254.856 231.549 261.366C231.573 261.414 231.583 261.467 231.58 261.52C231.576 261.573 231.558 261.624 231.528 261.668C231.498 261.712 231.457 261.747 231.409 261.77C231.361 261.793 231.308 261.802 231.255 261.798Z" fill="#9AB3DA"/>
<path d="M233.474 262.452C233.474 262.452 229.772 250.002 235.472 234.504C241.172 219.006 251.972 219.306 251.972 227.004C251.972 234.702 242.57 253.104 239.57 262.452H233.474Z" fill="#9AB3DA"/>
<path d="M236.128 261.798C236.049 261.79 235.977 261.752 235.926 261.691C235.875 261.631 235.851 261.553 235.858 261.474C237.658 241.446 246.382 224.802 246.466 224.634C246.506 224.57 246.569 224.523 246.643 224.503C246.716 224.484 246.794 224.493 246.861 224.529C246.928 224.564 246.979 224.624 247.004 224.696C247.028 224.768 247.025 224.847 246.994 224.916C246.904 225.078 238.228 241.626 236.452 261.516C236.449 261.556 236.439 261.595 236.421 261.631C236.404 261.667 236.379 261.699 236.349 261.725C236.319 261.752 236.284 261.772 236.246 261.784C236.208 261.797 236.167 261.801 236.128 261.798Z" fill="#404B7C"/>
<path d="M238.004 262.452C238.004 262.452 241.304 248.652 248.132 238.86C254.96 229.068 261.332 225.06 264.782 226.8C268.232 228.54 262.532 253.254 247.31 262.452H238.01H238.004Z" fill="#404B7C"/>
<path d="M243.706 261.798C243.651 261.798 243.598 261.782 243.552 261.754C243.506 261.726 243.468 261.686 243.443 261.638C243.417 261.59 243.406 261.536 243.409 261.481C243.412 261.427 243.429 261.375 243.46 261.33C243.58 261.156 255.526 243.588 262.414 229.812C262.43 229.774 262.453 229.74 262.483 229.711C262.513 229.682 262.548 229.66 262.587 229.646C262.625 229.632 262.667 229.625 262.708 229.628C262.749 229.63 262.789 229.641 262.826 229.66C262.863 229.678 262.895 229.704 262.922 229.736C262.948 229.768 262.967 229.805 262.979 229.844C262.99 229.884 262.993 229.925 262.988 229.966C262.983 230.007 262.969 230.047 262.948 230.082C256.042 243.882 244.072 261.492 243.952 261.666C243.924 261.706 243.888 261.739 243.845 261.762C243.802 261.785 243.754 261.798 243.706 261.798Z" fill="#9AB3DA"/>
<path d="M26.1695 86.862L39.7175 84.6C36.5075 85.14 34.3535 88.434 34.8815 92.028L21.3335 94.308C20.8055 90.696 22.9595 87.402 26.1695 86.862Z" fill="#DBE2EF"/>
<path d="M108.658 74.8919C111.94 74.4299 115.036 77.0219 115.57 80.6699L136.456 224.112C136.99 227.766 134.752 231.102 131.47 231.558L62.7097 241.2C59.4217 241.662 56.3317 239.076 55.7977 235.422L34.8817 92.0099C34.3477 88.3619 36.5797 85.0259 39.8677 84.5639L108.658 74.8919Z" fill="#3F72AF"/>
<path d="M105.254 81.54C108.536 81.078 111.626 83.664 112.16 87.312L131.312 218.664C131.846 222.318 129.614 225.654 126.326 226.116L66.104 234.6C62.816 235.062 59.72 232.476 59.186 228.816L40.034 97.458C39.5 93.804 41.732 90.462 45.02 90L66.716 86.952C67.5554 86.8398 68.4094 86.9693 69.1777 87.3253C69.9461 87.6813 70.597 88.2491 71.054 88.962C71.5556 89.7879 72.2833 90.4529 73.1509 90.8782C74.0186 91.3035 74.9899 91.4714 75.95 91.362C76.8998 91.207 77.7846 90.7808 78.4979 90.1347C79.2111 89.4885 79.7223 88.65 79.97 87.72C80.2061 86.908 80.6712 86.1813 81.3097 85.6268C81.9482 85.0724 82.7329 84.7138 83.57 84.594L105.254 81.54Z" fill="#9AB3DA"/>
<path d="M74.852 83.784C75.3565 83.7423 75.8571 83.9008 76.2456 84.2253C76.6341 84.5498 76.8793 85.0142 76.928 85.518C76.9778 85.7635 76.9787 86.0164 76.9305 86.2622C76.8823 86.5081 76.786 86.7419 76.6472 86.9504C76.5084 87.1589 76.3298 87.338 76.1216 87.4773C75.9134 87.6165 75.6797 87.7133 75.434 87.762C74.9279 87.8038 74.4258 87.6447 74.0361 87.319C73.6465 86.9934 73.4007 86.5275 73.352 86.022C73.2549 85.5264 73.3583 85.0126 73.6395 84.5931C73.9207 84.1735 74.3567 83.8826 74.852 83.784Z" fill="#404B7C"/>
<path d="M55.796 235.452L42.248 237.732L21.332 94.29L34.88 92.01L55.796 235.452Z" fill="#112D4E"/>
<path d="M62.708 241.2L49.16 243.48C45.872 243.942 42.782 241.356 42.248 237.702L55.796 235.422C56.33 239.106 59.42 241.692 62.708 241.2Z" fill="#091D34"/>
<path d="M101.978 97.686C102.617 97.6325 103.252 97.8329 103.745 98.2439C104.238 98.6548 104.549 99.2433 104.612 99.882L110.36 139.302C110.423 139.613 110.425 139.934 110.363 140.246C110.302 140.558 110.179 140.855 110.002 141.119C109.825 141.383 109.598 141.609 109.332 141.784C109.067 141.96 108.77 142.08 108.458 142.14L59.2578 149.052C58.6193 149.104 57.9859 148.903 57.4943 148.492C57.0027 148.081 56.6923 147.494 56.6298 146.856L50.8818 107.436C50.8181 107.125 50.8168 106.804 50.8778 106.493C50.9388 106.181 51.0611 105.885 51.2374 105.621C51.4137 105.357 51.6407 105.131 51.9051 104.955C52.1695 104.78 52.4661 104.658 52.7778 104.598L101.978 97.686Z" fill="#E9F3FF"/>
<path d="M92.2342 148.494C92.6043 148.464 92.9714 148.58 93.2565 148.818C93.5415 149.056 93.7217 149.397 93.7582 149.766L93.8542 150.48C93.9249 150.843 93.849 151.219 93.6432 151.526C93.4375 151.833 93.1186 152.046 92.7562 152.118L90.6322 152.418C90.2622 152.448 89.8951 152.332 89.61 152.094C89.325 151.856 89.1448 151.516 89.1082 151.146L89.0062 150.432C88.9356 150.069 89.0115 149.693 89.2172 149.386C89.423 149.08 89.7419 148.867 90.1042 148.794L92.2342 148.494Z" fill="#404B7C"/>
<path d="M114.932 179.832C115.304 179.8 115.673 179.917 115.96 180.156C116.246 180.395 116.427 180.738 116.462 181.11L116.564 181.818C116.634 182.182 116.558 182.56 116.351 182.868C116.144 183.176 115.824 183.39 115.46 183.462L87.5659 187.38C87.1939 187.412 86.8244 187.295 86.5379 187.056C86.2514 186.817 86.0709 186.474 86.0359 186.102L85.9339 185.4C85.8981 185.22 85.8983 185.034 85.9345 184.853C85.9707 184.673 86.0421 184.502 86.1446 184.349C86.2472 184.196 86.3789 184.065 86.5322 183.963C86.6855 183.862 86.8573 183.791 87.0379 183.756L114.932 179.832Z" fill="#E9F3FF"/>
<path d="M104.486 203.4C107.054 203.04 109.484 205.062 109.886 207.918L110.21 210.126C110.624 212.982 108.878 215.592 106.304 215.952L82.4058 219.312C79.8378 219.672 77.4078 217.65 77.0058 214.794L76.6818 212.586C76.2678 209.73 78.0138 207.12 80.5878 206.76L104.486 203.4Z" fill="#E9F3FF"/>
<path d="M80.8041 192.222C81.1757 192.192 81.5443 192.309 81.8305 192.548C82.1167 192.787 82.2975 193.129 82.3341 193.5L82.4361 194.214C82.4718 194.394 82.4716 194.58 82.4355 194.761C82.3993 194.941 82.3279 195.112 82.2253 195.265C82.1228 195.418 81.9911 195.549 81.8378 195.651C81.6845 195.752 81.5126 195.823 81.3321 195.858L65.4321 198.09C65.0601 198.118 64.6921 197.999 64.4079 197.757C64.1236 197.515 63.9462 197.172 63.9141 196.8L63.8121 196.086C63.7397 195.722 63.8147 195.345 64.0206 195.037C64.2265 194.728 64.5465 194.514 64.9101 194.442L80.8041 192.222Z" fill="#404B7C"/>
<path d="M110.996 154.506C111.434 154.469 111.869 154.607 112.206 154.889C112.543 155.171 112.755 155.574 112.796 156.012L114.494 167.652C114.537 167.865 114.537 168.085 114.495 168.298C114.452 168.511 114.368 168.714 114.247 168.895C114.126 169.075 113.971 169.23 113.789 169.351C113.608 169.471 113.405 169.554 113.192 169.596L102.728 171.066C102.29 171.101 101.856 170.963 101.52 170.681C101.183 170.4 100.971 169.997 100.928 169.56L99.2539 157.914C99.2111 157.701 99.2109 157.481 99.2533 157.268C99.2957 157.055 99.3798 156.852 99.5008 156.671C99.6218 156.491 99.7772 156.336 99.9583 156.215C100.139 156.095 100.342 156.012 100.556 155.97L110.996 154.506Z" fill="#E9F3FF"/>
<path d="M90.9136 157.326C91.3515 157.289 91.7862 157.427 92.1233 157.709C92.4603 157.991 92.6725 158.395 92.7136 158.832L94.4116 170.472C94.4544 170.685 94.4546 170.905 94.4122 171.118C94.3699 171.331 94.2858 171.534 94.1648 171.715C94.0438 171.895 93.8883 172.05 93.7072 172.171C93.5261 172.291 93.323 172.374 93.1096 172.416L82.6396 173.886C82.202 173.921 81.7682 173.783 81.4315 173.501C81.0948 173.22 80.8822 172.817 80.8396 172.38L79.1416 160.74C79.0988 160.527 79.0986 160.307 79.141 160.094C79.1834 159.881 79.2675 159.678 79.3885 159.497C79.5094 159.317 79.665 159.162 79.846 159.041C80.0271 158.921 80.2302 158.838 80.4436 158.796L90.9136 157.326Z" fill="#E9F3FF"/>
<path d="M85.094 149.502C85.4651 149.47 85.8337 149.586 86.1201 149.824C86.4064 150.062 86.5875 150.403 86.624 150.774L86.726 151.488C86.7618 151.668 86.7616 151.854 86.7254 152.035C86.6893 152.215 86.6178 152.386 86.5153 152.539C86.4127 152.692 86.281 152.823 86.1277 152.925C85.9744 153.026 85.8026 153.097 85.622 153.132L69.728 155.364C69.357 155.396 68.9883 155.28 68.7019 155.042C68.4156 154.804 68.2345 154.463 68.198 154.092L68.096 153.378C68.0602 153.198 68.0604 153.012 68.0966 152.831C68.1328 152.651 68.2042 152.48 68.3067 152.327C68.4093 152.174 68.541 152.043 68.6943 151.941C68.8476 151.84 69.0194 151.769 69.2 151.734L85.094 149.502Z" fill="#404B7C"/>
<path d="M70.8317 160.146C71.2693 160.111 71.7031 160.249 72.0398 160.531C72.3765 160.812 72.5891 161.215 72.6317 161.652L74.3297 173.292C74.4144 173.722 74.3249 174.169 74.0808 174.533C73.8367 174.898 73.4579 175.15 73.0277 175.236L62.5637 176.706C62.1261 176.741 61.6923 176.603 61.3556 176.321C61.0189 176.04 60.8064 175.637 60.7637 175.2L59.0537 163.56C59.0109 163.347 59.0107 163.127 59.0531 162.914C59.0955 162.701 59.1796 162.498 59.3006 162.317C59.4216 162.137 59.5771 161.982 59.7581 161.861C59.9392 161.741 60.1423 161.658 60.3557 161.616L70.8317 160.146Z" fill="#E9F3FF"/>
<path d="M79.7241 184.8C80.0933 184.768 80.4603 184.882 80.7463 185.118C81.0324 185.353 81.2147 185.692 81.2541 186.06L81.3561 186.768C81.3919 186.948 81.3917 187.134 81.3555 187.315C81.3194 187.495 81.248 187.666 81.1454 187.819C81.0428 187.972 80.9111 188.103 80.7578 188.205C80.6046 188.306 80.4327 188.377 80.2521 188.412L64.3521 190.644C63.9811 190.674 63.6132 190.557 63.328 190.318C63.0428 190.078 62.8632 189.737 62.8281 189.366L62.7261 188.658C62.6537 188.294 62.7288 187.917 62.9347 187.609C63.1406 187.3 63.4605 187.086 63.8241 187.014L79.7241 184.8Z" fill="#404B7C"/>
<path d="M99.6921 147.45C100.062 147.42 100.429 147.536 100.714 147.774C100.999 148.012 101.18 148.352 101.216 148.722L101.318 149.436C101.389 149.799 101.313 150.175 101.107 150.482C100.901 150.788 100.582 151.001 100.22 151.074L98.0961 151.374C97.726 151.404 97.3589 151.288 97.0739 151.05C96.7888 150.812 96.6086 150.471 96.5721 150.102L96.4701 149.4C96.3995 149.037 96.4753 148.661 96.6811 148.354C96.8869 148.047 97.2058 147.834 97.5681 147.762L99.6921 147.45Z" fill="#404B7C"/>
<path d="M116.012 187.272C116.384 187.242 116.752 187.359 117.038 187.598C117.325 187.837 117.505 188.179 117.542 188.55L117.644 189.264C117.68 189.444 117.679 189.63 117.643 189.811C117.607 189.991 117.536 190.162 117.433 190.315C117.331 190.468 117.199 190.599 117.046 190.701C116.892 190.802 116.72 190.873 116.54 190.908L88.6459 194.826C88.2749 194.858 87.9062 194.742 87.6199 194.504C87.3335 194.266 87.1524 193.925 87.1159 193.554L87.0139 192.84C86.9433 192.476 87.0198 192.098 87.2267 191.79C87.4336 191.482 87.754 191.269 88.1179 191.196L116.012 187.272Z" fill="#E9F3FF"/>
<path d="M97.1854 103.11L81.7594 105.282C79.7194 105.57 78.3334 107.634 78.6634 109.908C78.3334 107.634 76.4074 106.032 74.3674 106.308L58.9414 108.474L63.5554 140.112L78.9814 137.94C81.0154 137.658 82.9354 139.248 83.2714 141.504C82.9594 139.242 84.3454 137.19 86.3734 136.902L101.799 134.736L97.1854 103.11ZM69.5854 127.278L67.9714 116.19L76.6834 120.63L69.5854 127.278Z" fill="#9AB3DA"/>
<path d="M82.4555 136.248C82.3838 136.247 82.3146 136.221 82.2607 136.174C82.2067 136.126 82.1716 136.061 82.1615 135.99L78.5615 111.18C78.556 111.141 78.5583 111.101 78.5683 111.062C78.5783 111.024 78.5957 110.987 78.6197 110.956C78.6681 110.891 78.74 110.849 78.8195 110.838C78.8991 110.827 78.9798 110.848 79.044 110.896C79.1081 110.945 79.1504 111.016 79.1615 111.096L82.7615 135.906C82.7675 135.945 82.7657 135.985 82.7562 136.023C82.7468 136.061 82.7299 136.098 82.7065 136.129C82.6831 136.161 82.6536 136.188 82.6198 136.208C82.586 136.229 82.5485 136.242 82.5095 136.248H82.4555Z" fill="#404B7C"/>
<path d="M101.792 134.748L102.392 138.858L64.1537 144.258L63.5537 140.148L78.9797 137.982C81.0197 137.694 82.9397 139.296 83.2757 141.582C82.9457 139.308 84.3317 137.244 86.3717 136.956L101.792 134.748Z" fill="#404B7C"/>
<path d="M160.118 236.448L159.932 239.256L159.566 244.602H154.868L154.682 241.272L154.418 236.748L160.118 236.448Z" fill="#ECBDBB"/>
<path d="M160.124 236.448L159.932 239.256C158.39 239.856 156.392 240.642 154.682 241.272L154.424 236.748L160.124 236.448Z" fill="#404B7C"/>
<path d="M163.16 253.542C161.393 254.103 159.829 255.169 158.66 256.608C159.505 258.439 159.927 260.436 159.896 262.452H162.422C162.422 262.452 163.112 256.8 163.16 253.542Z" fill="#404B7C"/>
<path d="M163.16 253.542C161.393 254.104 159.829 255.169 158.66 256.608L158.624 256.65C157.308 258.296 155.792 259.771 154.112 261.042C152.878 261.957 151.382 262.452 149.846 262.452H140.324C140.324 262.452 140.03 259.188 143.42 256.902C147.422 254.202 150.722 249.402 152.324 243.15C155.198 242.84 158.096 242.84 160.97 243.15C160.97 243.15 163.094 249.798 163.16 252.852C163.166 253.062 163.166 253.296 163.16 253.542Z" fill="#3F72AF"/>
<path d="M175.364 150.054C175.184 151.254 174.986 152.268 174.764 153.15C173.792 157.29 171.71 164.442 169.646 171.234C166.934 180.204 164.246 188.55 164.246 188.55C164.246 188.55 164.996 197.4 165.596 204.45C166.196 211.5 162.596 238.05 162.596 238.05C158.846 238.95 152.546 238.35 152.546 238.35C152.546 238.35 147.896 202.65 147.446 187.2C146.996 171.75 147.296 147 148.046 138.15C148.796 129.3 148.046 116.412 159.296 115.8C176.762 114.846 177.128 138.51 175.364 150.054Z" fill="#9AB3DA"/>
<path d="M159.476 236.748H159.44C159.361 236.738 159.29 236.696 159.242 236.633C159.193 236.57 159.172 236.491 159.182 236.412C159.182 236.22 161.582 217.416 161.366 211.212C161.306 209.466 161.138 207.06 160.964 204.504C160.496 197.742 159.914 189.324 160.79 186.024C161.99 181.584 168.32 149.268 168.386 148.944C168.394 148.905 168.409 148.867 168.431 148.834C168.453 148.8 168.481 148.771 168.514 148.749C168.548 148.726 168.585 148.71 168.624 148.702C168.663 148.694 168.704 148.694 168.743 148.701C168.783 148.709 168.82 148.724 168.854 148.746C168.887 148.768 168.916 148.796 168.939 148.829C168.961 148.862 168.977 148.9 168.985 148.939C168.993 148.978 168.994 149.019 168.986 149.058C168.92 149.382 162.572 181.722 161.384 186.18C160.532 189.384 161.108 197.742 161.576 204.462C161.75 207.018 161.918 209.436 161.978 211.188C162.188 217.44 159.812 236.292 159.788 236.484C159.779 236.559 159.742 236.628 159.684 236.677C159.626 236.726 159.552 236.752 159.476 236.748Z" fill="#404B7C"/>
<path d="M175.365 150.054C175.185 151.254 174.987 152.268 174.765 153.15C173.793 157.29 171.711 164.442 169.647 171.234L166.119 147.744L174.765 148.998L175.365 150.054Z" fill="#404B7C"/>
<path d="M206.378 236.448L206.186 239.256L205.826 244.602H201.128L200.936 241.272L200.678 236.748L206.378 236.448Z" fill="#ECBDBB"/>
<path d="M206.379 236.448L206.187 239.256C204.645 239.856 202.647 240.642 200.937 241.272L200.655 236.748L206.379 236.448Z" fill="#404B7C"/>
<path d="M209.414 253.542C207.647 254.103 206.083 255.169 204.914 256.608C205.759 258.439 206.181 260.436 206.15 262.452H208.676C208.676 262.452 209.366 256.8 209.414 253.542Z" fill="#404B7C"/>
<path d="M209.414 253.542C207.647 254.104 206.083 255.169 204.914 256.608L204.878 256.65C203.562 258.296 202.046 259.771 200.366 261.042C199.132 261.957 197.636 262.452 196.1 262.452H186.578C186.578 262.452 186.284 259.188 189.674 256.902C193.676 254.202 196.976 249.402 198.578 243.15C201.451 242.84 204.35 242.84 207.224 243.15C207.224 243.15 209.348 249.798 209.414 252.852C209.42 253.062 209.42 253.296 209.414 253.542Z" fill="#3F72AF"/>
<path d="M163.226 120.9C163.226 120.9 168.326 151.8 169.076 153.9C169.826 156 185.876 187.05 188.426 193.65C190.976 200.25 198.326 238.05 198.326 238.05C198.326 238.05 204.326 238.5 208.526 237.6C208.526 237.6 210.176 213.15 208.976 203.25C207.776 193.35 206.126 190.2 204.176 183.6C202.226 177 199.376 145.65 197.726 137.55C196.076 129.45 194.576 123.3 190.676 118.5C186.776 113.7 161.726 103.5 163.226 120.9Z" fill="#9AB3DA"/>
<path d="M192.327 136.2C183.327 136.2 181.305 125.838 181.281 125.73C181.274 125.691 181.275 125.65 181.283 125.611C181.292 125.572 181.308 125.535 181.331 125.502C181.354 125.469 181.383 125.441 181.417 125.42C181.45 125.398 181.488 125.383 181.527 125.376C181.567 125.369 181.607 125.37 181.646 125.378C181.685 125.387 181.722 125.403 181.755 125.426C181.788 125.449 181.816 125.478 181.838 125.511C181.859 125.545 181.874 125.583 181.881 125.622C181.959 126.054 183.939 136.158 193.065 135.576C193.105 135.573 193.145 135.578 193.182 135.59C193.22 135.603 193.255 135.623 193.284 135.649C193.314 135.675 193.338 135.708 193.355 135.743C193.372 135.779 193.382 135.818 193.383 135.858C193.386 135.897 193.38 135.937 193.367 135.974C193.355 136.012 193.334 136.046 193.308 136.076C193.282 136.105 193.25 136.129 193.215 136.146C193.179 136.164 193.141 136.174 193.101 136.176C192.855 136.2 192.579 136.2 192.327 136.2Z" fill="#404B7C"/>
<path d="M205.527 236.25C205.488 236.248 205.449 236.238 205.414 236.22C205.378 236.203 205.347 236.179 205.32 236.15C205.294 236.12 205.274 236.086 205.261 236.048C205.248 236.011 205.243 235.971 205.245 235.932C205.245 235.722 206.445 214.554 205.995 206.568C205.725 201.714 203.595 195.42 201.693 189.87C200.493 186.27 199.401 183.138 199.101 181.098C198.885 179.61 198.339 175.464 197.643 170.214C195.969 157.506 193.443 138.3 192.807 135.978C191.919 132.726 189.141 124.578 189.111 124.494C189.086 124.418 189.092 124.336 189.127 124.264C189.162 124.193 189.225 124.138 189.3 124.113C189.376 124.088 189.459 124.093 189.53 124.129C189.602 124.164 189.656 124.226 189.681 124.302C189.681 124.386 192.495 132.546 193.383 135.822C194.025 138.18 196.557 157.422 198.237 170.136C198.927 175.386 199.473 179.526 199.689 181.008C199.983 182.994 201.033 186.09 202.257 189.678C204.159 195.264 206.319 201.6 206.589 206.538C207.033 214.56 205.851 235.758 205.839 235.974C205.833 236.051 205.797 236.124 205.739 236.175C205.681 236.226 205.605 236.253 205.527 236.25Z" fill="#404B7C"/>
<path d="M167.876 148.5H167.828C167.672 148.5 164.048 147.852 163.394 146.1C162.794 144.498 158.564 124.218 158.384 123.354C158.368 123.274 158.384 123.192 158.429 123.124C158.474 123.057 158.544 123.01 158.624 122.994C158.703 122.978 158.786 122.994 158.854 123.039C158.921 123.084 158.968 123.154 158.984 123.234C159.026 123.444 163.388 144.33 163.97 145.89C164.36 146.922 166.37 147.57 167.522 147.816L163.196 122.742C163.182 122.662 163.201 122.581 163.248 122.515C163.294 122.449 163.365 122.405 163.445 122.391C163.524 122.377 163.606 122.396 163.672 122.443C163.738 122.49 163.782 122.56 163.796 122.64L168.194 148.14C168.203 148.186 168.202 148.233 168.19 148.278C168.178 148.323 168.156 148.365 168.125 148.4C168.094 148.435 168.056 148.462 168.012 148.479C167.969 148.497 167.922 148.504 167.876 148.5Z" fill="#404B7C"/>
<path d="M118.454 113.448L114.602 114.996C114.602 114.996 107.9 113.622 106.7 112.92C105.5 112.218 104.774 113.37 105.902 114.522C106.858 115.407 107.906 116.187 109.028 116.85C107.191 117.698 105.284 118.385 103.328 118.902C101.054 119.376 99.4037 119.4 99.3557 120.354C99.3077 121.308 100.682 121.554 100.682 121.554C100.682 121.554 99.6077 121.83 99.7817 122.754C99.9557 123.678 102.182 123.48 102.182 123.48C102.182 123.48 101.06 123.906 101.306 124.632C101.552 125.358 103.934 125.106 103.934 125.106C103.84 125.161 103.759 125.236 103.696 125.325C103.634 125.415 103.592 125.517 103.573 125.624C103.554 125.731 103.559 125.842 103.587 125.947C103.615 126.052 103.666 126.15 103.736 126.234C104.264 126.882 112.736 126.27 116.672 119.67L121.922 118.206L118.454 113.448Z" fill="#ECBDBB"/>
<path d="M101.6 121.698C101.56 121.702 101.521 121.697 101.483 121.685C101.445 121.674 101.41 121.655 101.38 121.629C101.318 121.578 101.28 121.505 101.273 121.425C101.266 121.345 101.29 121.266 101.341 121.205C101.393 121.144 101.466 121.105 101.546 121.098C101.582 121.098 104.954 120.498 106.946 119.898C106.985 119.887 107.026 119.883 107.067 119.888C107.108 119.892 107.147 119.905 107.183 119.924C107.219 119.944 107.251 119.971 107.277 120.003C107.302 120.035 107.321 120.072 107.333 120.111C107.344 120.15 107.348 120.192 107.343 120.232C107.339 120.273 107.326 120.313 107.306 120.349C107.287 120.385 107.26 120.416 107.228 120.442C107.196 120.467 107.159 120.487 107.12 120.498C105.074 121.098 101.666 121.698 101.636 121.734H101.582L101.6 121.698Z" fill="#404B7C"/>
<path d="M103.202 123.528C103.162 123.533 103.122 123.53 103.084 123.52C103.046 123.51 103.01 123.492 102.978 123.468C102.947 123.444 102.92 123.413 102.901 123.379C102.881 123.344 102.868 123.306 102.863 123.267C102.858 123.228 102.86 123.188 102.871 123.149C102.881 123.111 102.899 123.075 102.923 123.043C102.947 123.012 102.978 122.986 103.012 122.966C103.046 122.946 103.084 122.933 103.124 122.928C103.124 122.928 106.124 122.124 108.068 121.362C108.105 121.344 108.146 121.334 108.187 121.333C108.228 121.332 108.269 121.339 108.308 121.354C108.346 121.37 108.381 121.393 108.41 121.422C108.439 121.451 108.461 121.486 108.476 121.525C108.491 121.563 108.498 121.604 108.496 121.646C108.495 121.687 108.484 121.727 108.466 121.764C108.448 121.801 108.423 121.834 108.391 121.861C108.36 121.888 108.323 121.908 108.284 121.92C106.292 122.694 103.31 123.498 103.28 123.504L103.202 123.528Z" fill="#404B7C"/>
<path d="M104.546 125.148C104.467 125.159 104.386 125.138 104.322 125.09C104.258 125.041 104.215 124.97 104.204 124.89C104.193 124.81 104.214 124.73 104.262 124.666C104.311 124.601 104.383 124.559 104.462 124.548C106.076 124.07 107.66 123.499 109.208 122.838C109.281 122.805 109.363 122.801 109.438 122.829C109.513 122.856 109.574 122.913 109.607 122.985C109.641 123.057 109.644 123.14 109.616 123.215C109.589 123.29 109.533 123.351 109.46 123.384C107.895 124.056 106.292 124.637 104.66 125.124L104.546 125.148Z" fill="#404B7C"/>
<path d="M122.577 108.9L117.855 111.852C117.855 111.852 116.457 117.6 121.257 120.504L127.755 119.154C127.755 119.154 129.327 110.898 122.577 108.9Z" fill="#9AB3DA"/>
<path d="M155.001 91.494C154.125 100.284 152.601 109.692 150.327 110.928C149.025 111.642 145.779 112.698 142.071 113.778C134.871 115.866 125.949 118.05 125.949 118.05C123.027 115.8 123.027 110.25 123.027 110.25L141.477 100.8C141.477 100.8 141.705 96.072 142.227 90.072C142.749 84.072 141.441 74.928 145.749 70.95C150.627 66.45 155.805 70.8 155.877 76.95C155.907 79.482 155.619 85.338 155.001 91.494Z" fill="#3F72AF"/>
<path d="M155.001 91.494C154.125 100.284 152.601 109.692 150.327 110.928C149.025 111.642 145.779 112.698 142.071 113.778C145.515 107.82 152.541 95.67 155.001 91.494Z" fill="#404B7C"/>
<path d="M155.054 36.1139C155.054 36.1139 161.606 32.1119 166.754 36.2639C171.902 40.4159 171.914 46.2 171.818 50.568C171.722 54.936 177.566 54.27 180.716 58.47C183.866 62.67 184.244 72.57 172.916 75.72C161.588 78.87 152.816 75.048 150.116 69.498C147.416 63.948 152.258 61.746 152.594 59.898C153.068 57.276 148.868 55.872 151.568 52.098C154.268 48.324 149.768 41.796 149.768 41.796C150.718 39.2826 152.616 37.2423 155.054 36.1139Z" fill="#404B7C"/>
<path d="M195.254 124.272C195.254 124.272 193.136 124.872 189.77 125.55C184.43 126.672 175.97 128.13 167.81 128.172C154.532 128.25 148.754 124.65 148.754 124.65C149.582 117.9 149.21 102.6 149.21 102.6C149.21 102.6 144.254 93.972 144.254 91.95C144.254 89.928 147.032 77.1 147.032 77.1L145.754 70.95C145.754 70.95 156.014 62.172 163.664 61.572C172.31 60.9 183.182 66.072 183.182 66.072C183.182 66.072 184.91 75.828 185.882 79.65C186.446 81.864 189.482 96.45 191.972 108.39C193.76 117.048 195.254 124.272 195.254 124.272Z" fill="#3F72AF"/>
<path d="M195.254 124.272C195.254 124.272 193.136 124.872 189.77 125.55C182.54 118.902 173.504 110.55 172.532 109.5L191.972 108.39C193.76 117.048 195.254 124.272 195.254 124.272Z" fill="#404B7C"/>
<path d="M149.283 109.8C149.204 109.8 149.127 109.768 149.071 109.712C149.015 109.656 148.983 109.58 148.983 109.5C148.983 105.972 148.911 103.17 148.899 102.684C148.401 101.814 143.949 93.96 143.949 91.95C143.949 89.94 146.487 78.15 146.715 77.1L145.749 72.438C145.733 72.3584 145.75 72.2758 145.795 72.2083C145.84 72.1407 145.91 72.0939 145.989 72.078C146.069 72.0621 146.151 72.0784 146.219 72.1234C146.286 72.1684 146.333 72.2384 146.349 72.318L147.327 77.046C147.337 77.0875 147.337 77.1305 147.327 77.172C147.327 77.298 144.561 89.988 144.561 91.956C144.561 93.552 148.107 100.074 149.469 102.456C149.495 102.5 149.509 102.549 149.511 102.6C149.511 102.6 149.583 105.636 149.595 109.506C149.595 109.586 149.564 109.662 149.507 109.718C149.451 109.774 149.375 109.806 149.295 109.806L149.283 109.8Z" fill="#ECBDBB"/>
<path d="M162.794 60.114C158.714 60.378 156.722 64.614 156.08 70.014C156.08 70.014 159.008 67.95 161.294 67.65C163.58 67.35 168.158 69.414 168.158 69.414C168.158 69.414 170.252 59.628 162.794 60.114Z" fill="#9AB3DA"/>
<path d="M160.028 101.148C160.028 101.148 151.526 98.4 151.226 98.346C150.926 98.292 139.874 100.446 139.526 100.848C139.465 100.947 139.426 101.059 139.414 101.176C139.401 101.292 139.415 101.409 139.453 101.52C139.492 101.63 139.554 101.73 139.636 101.813C139.719 101.897 139.818 101.96 139.928 102C140.33 102.198 146.576 101.502 146.576 101.502C146.353 102.276 146.169 103.061 146.024 103.854C146.024 104.202 147.872 107.202 148.976 107.454C149.731 107.586 150.507 107.518 151.226 107.256L152.024 106.608C152.646 106.773 153.284 106.874 153.926 106.908C154.424 106.86 155.426 105.858 155.426 105.858L159.128 107.256L160.028 101.148Z" fill="#ECBDBB"/>
<path d="M147.302 104.952H147.212C147.174 104.94 147.139 104.921 147.108 104.896C147.078 104.871 147.053 104.84 147.034 104.804C147.016 104.769 147.005 104.731 147.001 104.691C146.998 104.652 147.002 104.612 147.014 104.574L148.04 101.25C148.052 101.211 148.071 101.174 148.096 101.142C148.122 101.11 148.154 101.083 148.19 101.063C148.225 101.044 148.265 101.031 148.306 101.027C148.347 101.022 148.388 101.026 148.427 101.037C148.467 101.048 148.503 101.068 148.535 101.093C148.567 101.119 148.594 101.15 148.614 101.186C148.634 101.222 148.646 101.262 148.651 101.303C148.655 101.343 148.652 101.385 148.64 101.424L147.614 104.748C147.593 104.812 147.55 104.867 147.494 104.904C147.437 104.941 147.37 104.958 147.302 104.952Z" fill="#404B7C"/>
<path d="M148.526 106.326C148.446 106.326 148.37 106.294 148.313 106.238C148.257 106.182 148.226 106.106 148.226 106.026C148.226 105.942 148.226 105.888 149.804 102.378C149.839 102.31 149.899 102.259 149.971 102.234C150.044 102.209 150.123 102.213 150.192 102.244C150.262 102.276 150.317 102.332 150.346 102.403C150.375 102.474 150.377 102.553 150.35 102.624C149.798 103.86 148.898 105.87 148.82 106.098C148.803 106.164 148.766 106.222 148.712 106.263C148.659 106.304 148.593 106.327 148.526 106.326Z" fill="#404B7C"/>
<path d="M165.728 100.398C165.728 100.398 167.876 107.346 162.23 112.35L157.232 109.602C157.232 109.602 155.882 102.402 160.232 99.804L165.728 100.398Z" fill="#9AB3DA"/>
<path d="M191.426 120.372C184.562 121.476 166.628 112.626 161.858 110.172C161.648 108.68 161.737 107.162 162.118 105.705C162.499 104.248 163.165 102.88 164.078 101.682L184.526 104.25C184.526 104.25 180.626 91.8601 177.848 83.25C175.07 74.64 177.584 64.332 183.176 66.072C192.326 68.928 195.326 83.7721 196.976 96.5281C198.626 109.284 199.376 119.1 191.426 120.372Z" fill="#3F72AF"/>
<path d="M184.528 104.562H184.492L164.056 102C163.976 101.99 163.904 101.948 163.855 101.885C163.806 101.821 163.784 101.741 163.795 101.661C163.805 101.581 163.846 101.509 163.91 101.46C163.974 101.411 164.054 101.39 164.134 101.4L184.12 103.908C183.394 101.61 180.034 90.9481 177.586 83.3461C175.84 77.9461 176.122 71.472 178.246 68.01C178.264 67.9729 178.29 67.9401 178.322 67.9136C178.354 67.887 178.391 67.8675 178.431 67.856C178.471 67.8446 178.513 67.8416 178.554 67.8472C178.595 67.8528 178.635 67.8669 178.67 67.8886C178.706 67.9102 178.736 67.939 178.76 67.9731C178.784 68.0072 178.8 68.0458 178.808 68.0866C178.816 68.1273 178.816 68.1693 178.807 68.2098C178.797 68.2504 178.78 68.2886 178.756 68.322C176.71 71.652 176.458 77.8921 178.156 83.1601C180.904 91.6861 184.798 104.052 184.834 104.16C184.851 104.207 184.856 104.258 184.848 104.308C184.841 104.358 184.821 104.405 184.79 104.445C184.76 104.485 184.72 104.517 184.674 104.537C184.628 104.558 184.578 104.566 184.528 104.562Z" fill="#ECBDBB"/>
<path d="M190.124 120.768C182.498 120.768 166.64 112.968 161.726 110.454C161.691 110.436 161.66 110.411 161.634 110.381C161.609 110.351 161.59 110.316 161.578 110.278C161.566 110.241 161.561 110.201 161.565 110.162C161.568 110.122 161.579 110.084 161.597 110.049C161.615 110.014 161.64 109.983 161.67 109.957C161.7 109.932 161.735 109.913 161.773 109.901C161.81 109.889 161.85 109.884 161.889 109.888C161.929 109.891 161.967 109.902 162.002 109.92C165.698 111.81 184.466 121.188 191.402 120.078L191.924 119.976C192.004 119.959 192.087 119.975 192.155 120.019C192.223 120.064 192.27 120.133 192.287 120.213C192.304 120.293 192.288 120.376 192.244 120.444C192.199 120.512 192.13 120.559 192.05 120.576L191.492 120.684C191.039 120.749 190.582 120.777 190.124 120.768Z" fill="#ECBDBB"/>
<path d="M192.728 110.448C192.671 110.448 192.616 110.431 192.568 110.4C192.52 110.369 192.482 110.326 192.458 110.274C191.03 107.178 185.858 105.402 185.858 105.384C185.782 105.358 185.72 105.304 185.685 105.233C185.649 105.161 185.644 105.079 185.669 105.003C185.695 104.927 185.749 104.865 185.82 104.83C185.892 104.794 185.974 104.788 186.05 104.814C186.272 104.892 191.492 106.692 193.028 110.022C193.051 110.07 193.06 110.123 193.055 110.176C193.051 110.228 193.032 110.279 193.002 110.322C192.971 110.365 192.93 110.4 192.882 110.422C192.834 110.444 192.781 110.453 192.728 110.448Z" fill="#ECBDBB"/>
<path d="M165.256 62.814C164.976 63.2988 164.604 63.7238 164.16 64.0646C163.717 64.4054 163.21 64.6553 162.67 64.8C162.177 64.8978 161.668 64.8705 161.189 64.7206C160.71 64.5707 160.276 64.303 159.928 63.942L159.61 61.242L159.142 57.3L163.456 54.522L163.894 56.754L165.256 62.814Z" fill="#ECBDBB"/>
<path d="M163.892 56.748C163.693 57.8365 163.179 58.8427 162.413 59.6415C161.647 60.4404 160.663 60.9969 159.584 61.242L159.116 57.3L163.454 54.522L163.892 56.748Z" fill="#404B7C"/>
<path d="M155.768 38.916C151.112 40.188 149.918 44.568 153.668 53.868C156.326 60.468 162.818 59.952 164.666 51.804C166.76 42.6 160.514 37.614 155.768 38.916Z" fill="#ECBDBB"/>
<path d="M148.814 48.6C148.814 48.6 155.966 47.322 159.314 41.82C159.314 41.82 159.566 45.018 162.164 46.47L163.016 50.322C163.016 50.322 166.868 48.27 165.614 42.174C164.36 36.078 158.288 31.926 152.012 35.622C145.088 39.702 148.814 48.6 148.814 48.6Z" fill="#404B7C"/>
<path d="M163.694 49.716C163.569 49.0134 163.691 48.2892 164.039 47.666C164.386 47.0428 164.939 46.5589 165.602 46.296C165.857 46.1863 166.132 46.1296 166.409 46.1296C166.687 46.1296 166.961 46.1863 167.216 46.296C169.016 47.148 168.668 52.248 164.216 52.944L163.694 49.716Z" fill="#ECBDBB"/>
<path d="M165.255 51.6C165.185 51.5997 165.118 51.575 165.064 51.5301C165.01 51.4851 164.974 51.4229 164.961 51.354C164.961 51.21 164.313 47.808 166.545 46.974C166.582 46.9602 166.622 46.9538 166.661 46.9553C166.701 46.9567 166.74 46.9659 166.776 46.9823C166.812 46.9988 166.844 47.0221 166.871 47.0511C166.898 47.08 166.919 47.114 166.932 47.151C166.946 47.188 166.953 47.2274 166.951 47.2669C166.95 47.3064 166.941 47.3452 166.924 47.3812C166.908 47.4171 166.884 47.4494 166.855 47.4763C166.826 47.5033 166.792 47.5242 166.755 47.538C164.991 48.198 165.555 51.216 165.555 51.246C165.569 51.3239 165.552 51.4043 165.507 51.4694C165.462 51.5346 165.393 51.5794 165.315 51.594H165.255V51.6Z" fill="#404B7C"/>
<path d="M166.928 49.8599C166.88 49.8602 166.833 49.8489 166.79 49.827C166.747 49.805 166.71 49.7731 166.682 49.7339C166.333 49.3004 165.857 48.9877 165.32 48.8399C165.241 48.8201 165.172 48.7694 165.13 48.699C165.088 48.6287 165.075 48.5445 165.095 48.4649C165.115 48.3854 165.166 48.317 165.236 48.2748C165.306 48.2326 165.391 48.2201 165.47 48.2399C166.143 48.4203 166.739 48.814 167.168 49.3619C167.207 49.4062 167.232 49.461 167.24 49.5194C167.248 49.5779 167.239 49.6374 167.213 49.6906C167.188 49.7437 167.147 49.7881 167.096 49.8183C167.046 49.8484 166.987 49.8629 166.928 49.8599Z" fill="#404B7C"/>
<path d="M155.588 22.2H154.802C154.437 22.2 154.142 22.4954 154.142 22.86V28.2179C154.142 28.5825 154.437 28.878 154.802 28.878H155.588C155.952 28.878 156.248 28.5825 156.248 28.2179V22.86C156.248 22.4954 155.952 22.2 155.588 22.2Z" fill="#9AB3DA"/>
<path d="M143.647 26.8235L143.092 27.3793C142.834 27.637 142.834 28.0549 143.092 28.3126L146.876 32.0971C147.134 32.3548 147.552 32.3548 147.809 32.0971L148.365 31.5413C148.623 31.2835 148.623 30.8656 148.365 30.6079L144.581 26.8235C144.323 26.5657 143.905 26.5657 143.647 26.8235Z" fill="#9AB3DA"/>
<path d="M167.305 27.3794L166.749 26.8236C166.491 26.5659 166.073 26.5659 165.816 26.8236L162.031 30.6081C161.773 30.8658 161.773 31.2837 162.031 31.5414L162.587 32.0972C162.845 32.355 163.263 32.355 163.52 32.0972L167.305 28.3128C167.562 28.055 167.562 27.6372 167.305 27.3794Z" fill="#9AB3DA"/>
<path d="M194.163 68.4001C194.163 68.4001 198.429 68.9221 201.885 67.3321C205.063 69.0161 208.751 69.4624 212.238 68.5846C215.726 67.7069 218.763 65.5675 220.765 62.58C222.766 59.5925 223.588 55.9691 223.073 52.4103C222.558 48.8516 220.742 45.6102 217.976 43.3128C215.209 41.0154 211.689 39.8253 208.097 39.9724C204.504 40.1195 201.093 41.5935 198.524 44.1093C195.955 46.6252 194.409 50.0042 194.187 53.5932C193.965 57.1822 195.081 60.7262 197.319 63.5401C196.707 64.8841 195.477 67.2841 194.163 68.4001Z" fill="#9AB3DA"/>
<path d="M211.136 52.89C211.202 52.925 211.278 52.9361 211.351 52.9212C211.425 52.9064 211.491 52.8666 211.538 52.8087C211.586 52.7507 211.611 52.6781 211.611 52.6032C211.611 52.5283 211.585 52.4558 211.538 52.398C211.046 51.8657 210.444 51.4484 209.773 51.1756C209.102 50.9028 208.379 50.7814 207.656 50.82C203.732 50.82 206.408 55.518 207.056 56.622C207.704 57.726 209.234 60.3 209.132 61.098C209.048 61.77 207.698 62.142 206.882 61.05C206.844 60.9853 206.784 60.9359 206.714 60.9101C206.643 60.8843 206.566 60.8837 206.495 60.9085C206.425 60.9333 206.365 60.9819 206.326 61.046C206.287 61.1101 206.271 61.1857 206.282 61.26C206.314 61.7646 206.468 62.2539 206.731 62.6863C206.993 63.1188 207.355 63.4816 207.788 63.744C210.014 65.346 213.746 63.744 213.188 60.396C212.84 58.368 209.912 54.768 209.588 53.298C209.3 52.326 210.218 52.404 211.136 52.89Z" fill="#E9F3FF"/>
<path d="M207.759 48.7201C208.879 48.7201 209.787 47.8121 209.787 46.6921C209.787 45.572 208.879 44.6641 207.759 44.6641C206.639 44.6641 205.731 45.572 205.731 46.6921C205.731 47.8121 206.639 48.7201 207.759 48.7201Z" fill="#E9F3FF"/>
<path d="M161.144 46.866C161.144 46.866 159.806 45.114 158.474 46.14C158.446 46.0275 158.378 45.9287 158.284 45.8616C158.189 45.7944 158.074 45.7634 157.958 45.774C157.568 45.84 157.766 47.052 157.766 47.052C158.868 46.764 160.017 46.7008 161.144 46.866Z" fill="#404B7C"/>
<path d="M153.039 49.404C153.039 49.404 152.769 47.4061 154.023 47.7301C154.008 47.6422 154.019 47.5518 154.054 47.4698C154.089 47.3878 154.147 47.3177 154.221 47.2681C154.635 47.1121 154.947 48.2341 154.947 48.2341C154.203 48.4114 153.535 48.8212 153.039 49.404Z" fill="#404B7C"/>
<path d="M159.736 50.5618C160.182 50.4602 160.441 49.9299 160.315 49.3775C160.189 48.825 159.726 48.4595 159.28 48.5611C158.834 48.6627 158.575 49.193 158.701 49.7455C158.827 50.2979 159.29 50.6634 159.736 50.5618Z" fill="#404B7C"/>
<path d="M159.294 49.4605C159.413 49.4332 159.488 49.3142 159.461 49.1947C159.433 49.0751 159.315 49.0003 159.195 49.0276C159.075 49.0548 159.001 49.1738 159.028 49.2934C159.055 49.4129 159.174 49.4877 159.294 49.4605Z" fill="white"/>
<path d="M154.97 51.6415C155.416 51.5399 155.676 51.0096 155.55 50.4572C155.424 49.9047 154.96 49.5392 154.514 49.6408C154.068 49.7424 153.809 50.2727 153.935 50.8252C154.061 51.3777 154.524 51.7431 154.97 51.6415Z" fill="#404B7C"/>
<path d="M155.22 51.1523C155.34 51.1253 155.415 51.006 155.388 50.8859C155.361 50.7657 155.242 50.6902 155.122 50.7172C155.002 50.7441 154.926 50.8634 154.953 50.9836C154.98 51.1037 155.099 51.1792 155.22 51.1523Z" fill="white"/>
<path d="M157.088 53.646C156.891 53.6542 156.695 53.6123 156.519 53.5241C156.343 53.436 156.191 53.3045 156.08 53.142C156.001 53.0404 155.95 52.9203 155.931 52.7931C155.912 52.666 155.926 52.5361 155.972 52.416C156.065 52.2458 156.191 52.0957 156.342 51.9742C156.494 51.8527 156.668 51.7622 156.854 51.708L156.482 50.022C156.465 49.9424 156.481 49.8595 156.525 49.7914C156.57 49.7234 156.639 49.6757 156.719 49.659C156.798 49.6423 156.881 49.6579 156.949 49.7023C157.018 49.7468 157.065 49.8164 157.082 49.896L157.514 51.852C157.53 51.9283 157.516 52.0079 157.475 52.074C157.433 52.1401 157.368 52.1874 157.292 52.206C156.995 52.2571 156.724 52.4073 156.524 52.632C156.516 52.6617 156.516 52.6931 156.524 52.7227C156.533 52.7524 156.549 52.7791 156.572 52.8C156.902 53.286 157.694 52.896 157.7 52.89C157.77 52.8609 157.848 52.8593 157.919 52.8856C157.99 52.9118 158.049 52.964 158.083 53.0316C158.117 53.0992 158.124 53.1772 158.103 53.25C158.083 53.3228 158.035 53.385 157.97 53.424C157.696 53.5625 157.395 53.6383 157.088 53.646Z" fill="#404B7C"/>
<path d="M157.736 55.428C157.736 55.428 160.178 56.4 161.024 53.46L157.736 55.428Z" fill="white"/>
<path d="M181.976 36.2699C185.207 36.2699 187.826 33.6508 187.826 30.4199C187.826 27.1891 185.207 24.5699 181.976 24.5699C178.745 24.5699 176.126 27.1891 176.126 30.4199C176.126 33.6508 178.745 36.2699 181.976 36.2699Z" fill="#E9F3FF"/>
<path d="M188.846 25.2C188.933 25.287 189.002 25.3903 189.05 25.5041C189.097 25.6179 189.121 25.7398 189.121 25.863C189.121 25.9862 189.097 26.1082 189.05 26.222C189.002 26.3357 188.933 26.4391 188.846 26.526L182.654 32.676C182.567 32.7633 182.464 32.8325 182.35 32.8798C182.236 32.927 182.114 32.9513 181.991 32.9513C181.868 32.9513 181.746 32.927 181.632 32.8798C181.518 32.8325 181.415 32.7633 181.328 32.676L178.382 29.73C178.233 29.5493 178.157 29.3196 178.168 29.0858C178.179 28.8519 178.277 28.6306 178.443 28.4651C178.608 28.2995 178.83 28.2015 179.064 28.1903C179.297 28.179 179.527 28.2552 179.708 28.404L181.988 30.684L187.526 25.2C187.701 25.0256 187.939 24.9277 188.186 24.9277C188.433 24.9277 188.67 25.0256 188.846 25.2Z" fill="#3F72AF"/>
<path d="M240.363 86.94V99.138C240.363 100.451 239.842 101.71 238.914 102.638C237.985 103.566 236.726 104.088 235.413 104.088H219.765L212.367 111.492V104.088H210.975C209.663 104.088 208.404 103.566 207.475 102.638C206.547 101.71 206.025 100.451 206.025 99.138V86.94C206.025 85.6272 206.547 84.3681 207.475 83.4398C208.404 82.5115 209.663 81.99 210.975 81.99H235.413C236.726 81.99 237.985 82.5115 238.914 83.4398C239.842 84.3681 240.363 85.6272 240.363 86.94Z" fill="#E9F3FF"/>
<path d="M215.589 96.774H213.189C212.845 96.774 212.565 97.0534 212.565 97.3981V98.2501C212.565 98.5947 212.845 98.874 213.189 98.874H215.589C215.934 98.874 216.213 98.5947 216.213 98.2501V97.3981C216.213 97.0534 215.934 96.774 215.589 96.774Z" fill="#9AB3DA"/>
<path d="M228.993 91.674H213.189C212.845 91.674 212.565 91.9533 212.565 92.298V93.15C212.565 93.4946 212.845 93.7739 213.189 93.7739H228.993C229.338 93.7739 229.617 93.4946 229.617 93.15V92.298C229.617 91.9533 229.338 91.674 228.993 91.674Z" fill="#9AB3DA"/>
<path d="M219.843 86.574H213.189C212.845 86.574 212.565 86.8534 212.565 87.198V88.05C212.565 88.3946 212.845 88.674 213.189 88.674H219.843C220.188 88.674 220.467 88.3946 220.467 88.05V87.198C220.467 86.8534 220.188 86.574 219.843 86.574Z" fill="#9AB3DA"/>
<path d="M136.964 56.532C136.964 56.532 131.492 57.198 127.058 55.164C122.983 57.3254 118.251 57.8992 113.777 56.7744C109.304 55.6497 105.406 52.9062 102.837 49.0745C100.269 45.2427 99.2127 40.5949 99.8723 36.0294C100.532 31.4639 102.861 27.3052 106.409 24.3571C109.957 21.409 114.471 19.881 119.08 20.0685C123.689 20.256 128.065 22.1457 131.362 25.3722C134.659 28.5987 136.642 32.9329 136.929 37.5369C137.215 42.1408 135.785 46.6875 132.914 50.298C133.7 52.002 135.254 55.08 136.964 56.532Z" fill="#3F72AF"/>
<path d="M113.937 36.3C113.937 36.3 117.735 34.05 118.737 30.798C119.739 27.546 122.487 29.298 122.337 31.65C122.28 32.9614 121.974 34.2501 121.437 35.448H127.689C129.087 35.448 129.141 38.496 127.689 38.898C127.689 38.898 129.141 41.25 127.041 42.798C127.246 43.315 127.273 43.8851 127.119 44.4193C126.965 44.9534 126.638 45.4214 126.189 45.75C126.189 45.75 126.591 48.102 123.891 48.348C121.191 48.594 113.655 47.196 113.655 47.196L113.937 36.3Z" fill="white"/>
<path d="M113.936 34.8H108.782C108.258 34.8 107.834 35.2245 107.834 35.7481V47.004C107.834 47.5276 108.258 47.952 108.782 47.952H113.936C114.46 47.952 114.884 47.5276 114.884 47.004V35.7481C114.884 35.2245 114.46 34.8 113.936 34.8Z" fill="#9AB3DA"/>
<path d="M88.5442 72.786C93.866 72.786 98.1802 68.4719 98.1802 63.15C98.1802 57.8282 93.866 53.514 88.5442 53.514C83.2224 53.514 78.9082 57.8282 78.9082 63.15C78.9082 68.4719 83.2224 72.786 88.5442 72.786Z" fill="#E9F3FF"/>
<path d="M88.5443 67.95C96.6923 64.05 93.9443 58.8 91.9463 58.398C89.9483 57.996 88.5443 59.898 88.5443 59.898C88.5443 59.898 87.1463 57.996 85.1423 58.398C83.1383 58.8 80.3963 64.05 88.5443 67.95Z" fill="#3F72AF"/>
<path d="M122.81 67.062C124.023 67.062 125.006 66.0789 125.006 64.866C125.006 63.6532 124.023 62.67 122.81 62.67C121.597 62.67 120.614 63.6532 120.614 64.866C120.614 66.0789 121.597 67.062 122.81 67.062Z" fill="#E9F3FF"/>
<path d="M114.52 69.246C115.119 69.246 115.606 68.7598 115.606 68.16C115.606 67.5602 115.119 67.074 114.52 67.074C113.92 67.074 113.434 67.5602 113.434 68.16C113.434 68.7598 113.92 69.246 114.52 69.246Z" fill="#E9F3FF"/>
<path d="M94.4296 257.814C96.6829 257.814 98.5096 255.987 98.5096 253.734C98.5096 251.481 96.6829 249.654 94.4296 249.654C92.1763 249.654 90.3496 251.481 90.3496 253.734C90.3496 255.987 92.1763 257.814 94.4296 257.814Z" fill="#E9F3FF"/>
<path d="M83.3911 250.632C84.5079 250.632 85.4131 249.727 85.4131 248.61C85.4131 247.493 84.5079 246.588 83.3911 246.588C82.2744 246.588 81.3691 247.493 81.3691 248.61C81.3691 249.727 82.2744 250.632 83.3911 250.632Z" fill="#E9F3FF"/>
<path d="M216.356 128.178C218.228 128.178 219.746 126.66 219.746 124.788C219.746 122.916 218.228 121.398 216.356 121.398C214.484 121.398 212.966 122.916 212.966 124.788C212.966 126.66 214.484 128.178 216.356 128.178Z" fill="#E9F3FF"/>
<path d="M207.188 122.208C208.116 122.208 208.868 121.456 208.868 120.528C208.868 119.6 208.116 118.848 207.188 118.848C206.26 118.848 205.508 119.6 205.508 120.528C205.508 121.456 206.26 122.208 207.188 122.208Z" fill="#E9F3FF"/>
<path d="M227.907 232.068C228.806 231.827 229.266 230.625 228.934 229.383C228.602 228.141 227.604 227.329 226.704 227.57C225.804 227.81 225.344 229.012 225.677 230.254C226.009 231.496 227.007 232.308 227.907 232.068Z" fill="#E9F3FF"/>
<path d="M231.938 224.28C232.627 224.186 233.082 223.339 232.953 222.386C232.823 221.434 232.16 220.738 231.47 220.831C230.781 220.925 230.326 221.773 230.455 222.725C230.585 223.677 231.248 224.373 231.938 224.28Z" fill="#E9F3FF"/>
<path d="M260.177 218.713C260.626 217.236 260.122 215.774 259.05 215.448C257.979 215.122 256.746 216.055 256.296 217.533C255.847 219.01 256.351 220.472 257.423 220.798C258.494 221.124 259.727 220.191 260.177 218.713Z" fill="#E9F3FF"/>
<path d="M267.987 248.011C268.9 246.766 268.909 245.22 268.006 244.557C267.103 243.894 265.63 244.367 264.717 245.612C263.803 246.857 263.795 248.403 264.698 249.066C265.601 249.728 267.073 249.256 267.987 248.011Z" fill="#E9F3FF"/>
<path d="M273.274 243.885C273.786 243.187 273.789 242.32 273.282 241.948C272.774 241.575 271.948 241.838 271.436 242.536C270.925 243.233 270.921 244.1 271.429 244.473C271.936 244.845 272.763 244.582 273.274 243.885Z" fill="#E9F3FF"/>
</svg>
